<?xml version="1.0" encoding="UTF-8" standalone="no"?>
<!DOCTYPE svg PUBLIC "-//W3C//DTD SVG 1.1//EN"
 "http://www.w3.org/Graphics/SVG/1.1/DTD/svg11.dtd">
<!-- Generated by graphviz version 10.0.1 (20240210.2158)
 -->
<!-- Title: GlobalLogger Pages: 1 -->
<svg width="600pt" height="94pt"
 viewBox="0.00 0.00 600.38 93.75" xmlns="http://www.w3.org/2000/svg" xmlns:xlink="http://www.w3.org/1999/xlink">
<g id="graph0" class="graph" transform="scale(1 1) rotate(0) translate(4 89.75)">
<title>GlobalLogger</title>
<!-- Node1 -->
<g id="Node000001" class="node">
<title>Node1</title>
<g id="a_Node000001"><a xlink:title="전역으로 사용할 수 있는 로깅시스템 클래스이다.">
<polygon fill="#999999" stroke="#666666" points="307.5,-19.25 234.5,-19.25 234.5,0 307.5,0 307.5,-19.25"/>
<text text-anchor="middle" x="271" y="-5.75" font-family="Helvetica,sans-Serif" font-size="10.00">GlobalLogger</text>
</a>
</g>
</g>
<!-- Node2 -->
<g id="Node000002" class="node">
<title>Node2</title>
<g id="a_Node000002"><a xlink:title=" ">
<polygon fill="white" stroke="#666666" points="34,-85.75 0,-85.75 0,-66.5 34,-66.5 34,-85.75"/>
<text text-anchor="middle" x="17" y="-72.25" font-family="Helvetica,sans-Serif" font-size="10.00">bool</text>
</a>
</g>
</g>
<!-- Node2&#45;&gt;Node1 -->
<g id="edge1_Node000001_Node000002" class="edge">
<title>Node2&#45;&gt;Node1</title>
<g id="a_edge1_Node000001_Node000002"><a xlink:title=" ">
<path fill="none" stroke="#9a32cd" stroke-dasharray="5,2" d="M28.93,-56.87C34.7,-49.55 42.27,-41.79 51,-37.25 82.06,-21.09 180.15,-14.45 234.26,-11.96"/>
<polygon fill="#9a32cd" stroke="#9a32cd" points="26.09,-54.82 23.13,-65 31.79,-58.89 26.09,-54.82"/>
</a>
</g>
<text text-anchor="middle" x="85.5" y="-39" font-family="Helvetica,sans-Serif" font-size="10.00" fill="grey"> bIsStringTarget</text>
</g>
<!-- Node3 -->
<g id="Node000003" class="node">
<title>Node3</title>
<g id="a_Node000003"><a xlink:title=" ">
<polygon fill="white" stroke="#666666" points="132.38,-85.75 85.62,-85.75 85.62,-66.5 132.38,-66.5 132.38,-85.75"/>
<text text-anchor="middle" x="109" y="-72.25" font-family="Helvetica,sans-Serif" font-size="10.00">string *</text>
</a>
</g>
</g>
<!-- Node3&#45;&gt;Node1 -->
<g id="edge2_Node000001_Node000003" class="edge">
<title>Node3&#45;&gt;Node1</title>
<g id="a_edge2_Node000001_Node000003"><a xlink:title=" ">
<path fill="none" stroke="#9a32cd" stroke-dasharray="5,2" d="M118.96,-56.43C123.62,-49.39 129.79,-41.96 137.25,-37.25 166.38,-18.86 205.6,-12.77 234.03,-10.94"/>
<polygon fill="#9a32cd" stroke="#9a32cd" points="116.09,-54.4 114.03,-64.79 122.12,-57.96 116.09,-54.4"/>
</a>
</g>
<text text-anchor="middle" x="168.88" y="-39" font-family="Helvetica,sans-Serif" font-size="10.00" fill="grey"> mStringTarget</text>
</g>
<!-- Node4 -->
<g id="Node000004" class="node">
<title>Node4</title>
<g id="a_Node000004"><a xlink:title=" ">
<polygon fill="white" stroke="#666666" points="210.4,-85.75 181.6,-85.75 181.6,-66.5 210.4,-66.5 210.4,-85.75"/>
<text text-anchor="middle" x="196" y="-72.25" font-family="Helvetica,sans-Serif" font-size="10.00">int</text>
</a>
</g>
</g>
<!-- Node4&#45;&gt;Node1 -->
<g id="edge3_Node000001_Node000004" class="edge">
<title>Node4&#45;&gt;Node1</title>
<g id="a_edge3_Node000001_Node000004"><a xlink:title=" ">
<path fill="none" stroke="#9a32cd" stroke-dasharray="5,2" d="M201.83,-55.53C204.5,-49.1 208.22,-42.31 213.25,-37.25 220.96,-29.5 231.34,-23.77 241.18,-19.64"/>
<polygon fill="#9a32cd" stroke="#9a32cd" points="198.57,-54.26 198.6,-64.85 205.18,-56.55 198.57,-54.26"/>
</a>
</g>
<text text-anchor="middle" x="238.88" y="-39" font-family="Helvetica,sans-Serif" font-size="10.00" fill="grey"> mFDTarget</text>
</g>
<!-- Node5 -->
<g id="Node000005" class="node">
<title>Node5</title>
<g id="a_Node000005"><a xlink:title=" ">
<polygon fill="white" stroke="#666666" points="309.25,-85.75 228.75,-85.75 228.75,-66.5 309.25,-66.5 309.25,-85.75"/>
<text text-anchor="middle" x="269" y="-72.25" font-family="Helvetica,sans-Serif" font-size="10.00">eSeverityLevel</text>
</a>
</g>
</g>
<!-- Node5&#45;&gt;Node1 -->
<g id="edge4_Node000001_Node000005" class="edge">
<title>Node5&#45;&gt;Node1</title>
<g id="a_edge4_Node000001_Node000005"><a xlink:title=" ">
<path fill="none" stroke="#9a32cd" stroke-dasharray="5,2" d="M269.62,-55.02C269.99,-43.12 270.44,-28.63 270.72,-19.52"/>
<polygon fill="#9a32cd" stroke="#9a32cd" points="266.14,-54.54 269.33,-64.64 273.13,-54.76 266.14,-54.54"/>
</a>
</g>
<text text-anchor="middle" x="287.25" y="-39" font-family="Helvetica,sans-Serif" font-size="10.00" fill="grey"> mLevel</text>
</g>
<!-- Node6 -->
<g id="Node000006" class="node">
<title>Node6</title>
<g id="a_Node000006"><a xlink:title=" ">
<polygon fill="white" stroke="#666666" points="432.25,-85.75 327.75,-85.75 327.75,-66.5 432.25,-66.5 432.25,-85.75"/>
<text text-anchor="middle" x="380" y="-72.25" font-family="Helvetica,sans-Serif" font-size="10.00">vector&lt; std::string &gt;</text>
</a>
</g>
</g>
<!-- Node6&#45;&gt;Node1 -->
<g id="edge5_Node000001_Node000006" class="edge">
<title>Node6&#45;&gt;Node1</title>
<g id="a_edge5_Node000001_Node000006"><a xlink:title=" ">
<path fill="none" stroke="#9a32cd" stroke-dasharray="5,2" d="M354.95,-60.3C333.8,-47.78 304.19,-30.27 286.38,-19.73"/>
<polygon fill="#9a32cd" stroke="#9a32cd" points="353.15,-63.31 363.54,-65.39 356.72,-57.28 353.15,-63.31"/>
</a>
</g>
<text text-anchor="middle" x="355.62" y="-39" font-family="Helvetica,sans-Serif" font-size="10.00" fill="grey"> mLevelStr</text>
</g>
<!-- Node7 -->
<g id="Node000007" class="node">
<title>Node7</title>
<g id="a_Node000007"><a xlink:title=" ">
<polygon fill="white" stroke="#666666" points="539.38,-85.75 450.62,-85.75 450.62,-66.5 539.38,-66.5 539.38,-85.75"/>
<text text-anchor="middle" x="495" y="-72.25" font-family="Helvetica,sans-Serif" font-size="10.00">pthread_mutex_t</text>
</a>
</g>
</g>
<!-- Node7&#45;&gt;Node1 -->
<g id="edge6_Node000001_Node000007" class="edge">
<title>Node7&#45;&gt;Node1</title>
<g id="a_edge6_Node000001_Node000007"><a xlink:title=" ">
<path fill="none" stroke="#9a32cd" stroke-dasharray="5,2" d="M459.52,-62.19C437.63,-54.44 408.87,-44.68 383,-37.25 358.12,-30.1 329.76,-23.37 307.79,-18.47"/>
<polygon fill="#9a32cd" stroke="#9a32cd" points="458.28,-65.46 468.87,-65.53 460.63,-58.87 458.28,-65.46"/>
</a>
</g>
<text text-anchor="middle" x="444" y="-39" font-family="Helvetica,sans-Serif" font-size="10.00" fill="grey"> mFileMutex</text>
</g>
<!-- Node8 -->
<g id="Node000008" class="node">
<title>Node8</title>
<g id="a_Node000008"><a xlink:title=" ">
<polygon fill="white" stroke="#666666" points="592.38,-85.75 557.62,-85.75 557.62,-66.5 592.38,-66.5 592.38,-85.75"/>
<text text-anchor="middle" x="575" y="-72.25" font-family="Helvetica,sans-Serif" font-size="10.00">char</text>
</a>
</g>
</g>
<!-- Node8&#45;&gt;Node1 -->
<g id="edge7_Node000001_Node000008" class="edge">
<title>Node8&#45;&gt;Node1</title>
<g id="a_edge7_Node000001_Node000008"><a xlink:title=" ">
<path fill="none" stroke="#9a32cd" stroke-dasharray="5,2" d="M546.93,-62.48C527.19,-54.09 499.95,-43.51 475,-37.25 417.67,-22.86 349.2,-15.95 307.96,-12.86"/>
<polygon fill="#9a32cd" stroke="#9a32cd" points="545.38,-65.63 555.95,-66.39 548.17,-59.2 545.38,-65.63"/>
</a>
</g>
<text text-anchor="middle" x="536.12" y="-39" font-family="Helvetica,sans-Serif" font-size="10.00" fill="grey"> mHostname</text>
</g>
</g>
</svg>
