<?xml version="1.0" encoding="UTF-8" standalone="no"?>
<!DOCTYPE svg PUBLIC "-//W3C//DTD SVG 1.1//EN"
 "http://www.w3.org/Graphics/SVG/1.1/DTD/svg11.dtd">
<!-- Generated by graphviz version 10.0.1 (20240210.2158)
 -->
<!-- Title: grc::Earth Pages: 1 -->
<svg width="309pt" height="94pt"
 viewBox="0.00 0.00 308.50 93.75" xmlns="http://www.w3.org/2000/svg" xmlns:xlink="http://www.w3.org/1999/xlink">

<svg id="main" version="1.1" xmlns="http://www.w3.org/2000/svg" xmlns:xlink="http://www.w3.org/1999/xlink" xml:space="preserve" onload="init(evt)">
<style type="text/css"><![CDATA[
.node, .edge {opacity: 0.7;}
.node.selected, .edge.selected {opacity: 1;}
.edge:hover path { stroke: red; }
.edge:hover polygon { stroke: red; fill: red; }
]]></style>
<script type="application/ecmascript" xlink:href="svg.min.js"/>
<svg id="graph" class="graph">
<g id="graph0" class="graph" transform="scale(1 1) rotate(0) translate(4 89.75)">
<title>grc::Earth</title>
<!-- Node1 -->
<g id="Node000001" class="node">
<title>Node1</title>
<g id="a_Node000001"><a xlink:title="지구의 애니메이션을 출력하는 클래스이다.">
<polygon fill="#999999" stroke="#666666" points="158.62,-19.25 99.88,-19.25 99.88,0 158.62,0 158.62,-19.25"/>
<text text-anchor="middle" x="129.25" y="-5.75" font-family="Helvetica,sans-Serif" font-size="10.00">grc::Earth</text>
</a>
</g>
</g>
<!-- Node2 -->
<g id="Node000002" class="node">
<title>Node2</title>
<g id="a_Node000002"><a xlink:href="class_i_animation.html" target="_top" xlink:title=" ">
<polygon fill="white" stroke="#666666" points="62.5,-85.75 0,-85.75 0,-66.5 62.5,-66.5 62.5,-85.75"/>
<text text-anchor="middle" x="31.25" y="-72.25" font-family="Helvetica,sans-Serif" font-size="10.00">IAnimation</text>
</a>
</g>
</g>
<!-- Node2&#45;&gt;Node1 -->
<g id="edge1_Node000001_Node000002" class="edge">
<title>Node2&#45;&gt;Node1</title>
<g id="a_edge1_Node000001_Node000002"><a xlink:title=" ">
<path fill="none" stroke="#63b8ff" d="M54.3,-59.96C73.28,-47.47 99.55,-30.17 115.42,-19.73"/>
<polygon fill="#63b8ff" stroke="#63b8ff" points="52.57,-56.9 46.14,-65.32 56.42,-62.75 52.57,-56.9"/>
</a>
</g>
</g>
<!-- Node3 -->
<g id="Node000003" class="node">
<title>Node3</title>
<g id="a_Node000003"><a xlink:title=" ">
<polygon fill="white" stroke="#666666" points="177.75,-85.75 80.75,-85.75 80.75,-66.5 177.75,-66.5 177.75,-85.75"/>
<text text-anchor="middle" x="129.25" y="-72.25" font-family="Helvetica,sans-Serif" font-size="10.00">unsigned long long</text>
</a>
</g>
</g>
<!-- Node3&#45;&gt;Node1 -->
<g id="edge2_Node000001_Node000003" class="edge">
<title>Node3&#45;&gt;Node1</title>
<g id="a_edge2_Node000001_Node000003"><a xlink:title=" ">
<path fill="none" stroke="#9a32cd" stroke-dasharray="5,2" d="M129.25,-54.65C129.25,-42.82 129.25,-28.54 129.25,-19.52"/>
<polygon fill="#9a32cd" stroke="#9a32cd" points="125.75,-54.64 129.25,-64.64 132.75,-54.64 125.75,-54.64"/>
</a>
</g>
<text text-anchor="middle" x="163.38" y="-39" font-family="Helvetica,sans-Serif" font-size="10.00" fill="grey"> mFramesIndex</text>
</g>
<!-- Node4 -->
<g id="Node000004" class="node">
<title>Node4</title>
<g id="a_Node000004"><a xlink:title=" ">
<polygon fill="white" stroke="#666666" points="300.5,-85.75 196,-85.75 196,-66.5 300.5,-66.5 300.5,-85.75"/>
<text text-anchor="middle" x="248.25" y="-72.25" font-family="Helvetica,sans-Serif" font-size="10.00">vector&lt; std::string &gt;</text>
</a>
</g>
</g>
<!-- Node4&#45;&gt;Node1 -->
<g id="edge3_Node000001_Node000004" class="edge">
<title>Node4&#45;&gt;Node1</title>
<g id="a_edge3_Node000001_Node000004"><a xlink:title=" ">
<path fill="none" stroke="#9a32cd" stroke-dasharray="5,2" d="M230.68,-58.69C222.24,-51.42 211.71,-43.19 201.25,-37.25 188.04,-29.75 172.31,-23.65 158.94,-19.19"/>
<polygon fill="#9a32cd" stroke="#9a32cd" points="228.28,-61.24 238.06,-65.31 232.95,-56.03 228.28,-61.24"/>
</a>
</g>
<text text-anchor="middle" x="239.38" y="-39" font-family="Helvetica,sans-Serif" font-size="10.00" fill="grey"> mFrames</text>
</g>
</g>
</svg>
</svg>

<style type='text/css'>
<![CDATA[
[data-mouse-over-selected='false'] { opacity: 0.7; }
[data-mouse-over-selected='true']  { opacity: 1.0; }
]]>
</style>
<script type="application/ecmascript"><![CDATA[
document.addEventListener('DOMContentLoaded', (event) => {
  highlightEdges();
  highlightAdjacentNodes();
});
]]></script>
</svg>
