<?xml version="1.0" encoding="UTF-8" standalone="no"?>
<!DOCTYPE svg PUBLIC "-//W3C//DTD SVG 1.1//EN"
 "http://www.w3.org/Graphics/SVG/1.1/DTD/svg11.dtd">
<!-- Generated by graphviz version 10.0.1 (20240210.2158)
 -->
<!-- Title: gdf::KernelQueue Pages: 1 -->
<svg width="250pt" height="116pt"
 viewBox="0.00 0.00 250.15 116.25" xmlns="http://www.w3.org/2000/svg" xmlns:xlink="http://www.w3.org/1999/xlink">

<svg id="main" version="1.1" xmlns="http://www.w3.org/2000/svg" xmlns:xlink="http://www.w3.org/1999/xlink" xml:space="preserve" onload="init(evt)">
<style type="text/css"><![CDATA[
.node, .edge {opacity: 0.7;}
.node.selected, .edge.selected {opacity: 1;}
.edge:hover path { stroke: red; }
.edge:hover polygon { stroke: red; fill: red; }
]]></style>
<script type="application/ecmascript" xlink:href="svg.min.js"/>
<svg id="graph" class="graph">
<g id="graph0" class="graph" transform="scale(1 1) rotate(0) translate(4 112.25)">
<title>gdf::KernelQueue</title>
<!-- Node1 -->
<g id="Node000001" class="node">
<title>Node1</title>
<g id="a_Node000001"><a xlink:title="커널 이벤트 큐를 관리하는 클래스이다.">
<polygon fill="#999999" stroke="#666666" points="146.28,-19.25 54.53,-19.25 54.53,0 146.28,0 146.28,-19.25"/>
<text text-anchor="middle" x="100.4" y="-5.75" font-family="Helvetica,sans-Serif" font-size="10.00">gdf::KernelQueue</text>
</a>
</g>
</g>
<!-- Node2 -->
<g id="Node000002" class="node">
<title>Node2</title>
<g id="a_Node000002"><a xlink:title=" ">
<polygon fill="white" stroke="#666666" points="28.8,-108.25 0,-108.25 0,-89 28.8,-89 28.8,-108.25"/>
<text text-anchor="middle" x="14.4" y="-94.75" font-family="Helvetica,sans-Serif" font-size="10.00">int</text>
</a>
</g>
</g>
<!-- Node2&#45;&gt;Node1 -->
<g id="edge1_Node000001_Node000002" class="edge">
<title>Node2&#45;&gt;Node1</title>
<g id="a_edge1_Node000001_Node000002"><a xlink:title=" ">
<path fill="none" stroke="#9a32cd" stroke-dasharray="5,2" d="M16.29,-77.6C18.47,-64.65 23.2,-48.23 33.4,-37.25 40.81,-29.27 50.92,-23.64 61.05,-19.69"/>
<polygon fill="#9a32cd" stroke="#9a32cd" points="12.86,-76.79 15.06,-87.15 19.8,-77.68 12.86,-76.79"/>
</a>
</g>
<text text-anchor="middle" x="64.9" y="-61.5" font-family="Helvetica,sans-Serif" font-size="10.00" fill="grey"> mEventCount</text>
<text text-anchor="middle" x="64.9" y="-50.25" font-family="Helvetica,sans-Serif" font-size="10.00" fill="grey">mEventIndex</text>
<text text-anchor="middle" x="64.9" y="-39" font-family="Helvetica,sans-Serif" font-size="10.00" fill="grey">mKqueue</text>
</g>
<!-- Node3 -->
<g id="Node000003" class="node">
<title>Node3</title>
<g id="a_Node000003"><a xlink:title=" ">
<polygon fill="white" stroke="#666666" points="140.28,-108.25 60.53,-108.25 60.53,-89 140.28,-89 140.28,-108.25"/>
<text text-anchor="middle" x="100.4" y="-94.75" font-family="Helvetica,sans-Serif" font-size="10.00">struct kevent *</text>
</a>
</g>
</g>
<!-- Node3&#45;&gt;Node1 -->
<g id="edge2_Node000001_Node000003" class="edge">
<title>Node3&#45;&gt;Node1</title>
<g id="a_edge2_Node000001_Node000003"><a xlink:title=" ">
<path fill="none" stroke="#9a32cd" stroke-dasharray="5,2" d="M100.4,-77.26C100.4,-59.05 100.4,-33.22 100.4,-19.69"/>
<polygon fill="#9a32cd" stroke="#9a32cd" points="96.9,-77.13 100.4,-87.13 103.9,-77.13 96.9,-77.13"/>
</a>
</g>
<text text-anchor="middle" x="126.65" y="-50.25" font-family="Helvetica,sans-Serif" font-size="10.00" fill="grey"> mEventList</text>
</g>
<!-- Node4 -->
<g id="Node000004" class="node">
<title>Node4</title>
<g id="a_Node000004"><a xlink:title=" ">
<polygon fill="white" stroke="#666666" points="242.15,-108.25 158.65,-108.25 158.65,-89 242.15,-89 242.15,-108.25"/>
<text text-anchor="middle" x="200.4" y="-94.75" font-family="Helvetica,sans-Serif" font-size="10.00">struct timespec</text>
</a>
</g>
</g>
<!-- Node4&#45;&gt;Node1 -->
<g id="edge3_Node000001_Node000004" class="edge">
<title>Node4&#45;&gt;Node1</title>
<g id="a_edge3_Node000001_Node000004"><a xlink:title=" ">
<path fill="none" stroke="#9a32cd" stroke-dasharray="5,2" d="M190.54,-78.95C182.91,-65.91 171.31,-48.83 157.4,-37.25 148.5,-29.84 137.2,-24 127.01,-19.7"/>
<polygon fill="#9a32cd" stroke="#9a32cd" points="187.33,-80.38 195.25,-87.42 193.45,-76.98 187.33,-80.38"/>
</a>
</g>
<text text-anchor="middle" x="208.65" y="-50.25" font-family="Helvetica,sans-Serif" font-size="10.00" fill="grey"> mTimeout</text>
</g>
</g>
</svg>
</svg>

<style type='text/css'>
<![CDATA[
[data-mouse-over-selected='false'] { opacity: 0.7; }
[data-mouse-over-selected='true']  { opacity: 1.0; }
]]>
</style>
<script type="application/ecmascript"><![CDATA[
document.addEventListener('DOMContentLoaded', (event) => {
  highlightEdges();
  highlightAdjacentNodes();
});
]]></script>
</svg>
