<?xml version="1.0" encoding="UTF-8" standalone="no"?>
<!DOCTYPE svg PUBLIC "-//W3C//DTD SVG 1.1//EN"
 "http://www.w3.org/Graphics/SVG/1.1/DTD/svg11.dtd">
<!-- Generated by graphviz version 10.0.1 (20240210.2158)
 -->
<!-- Title: grc::User Pages: 1 -->
<svg width="255pt" height="139pt"
 viewBox="0.00 0.00 255.15 138.75" xmlns="http://www.w3.org/2000/svg" xmlns:xlink="http://www.w3.org/1999/xlink">
<g id="graph0" class="graph" transform="scale(1 1) rotate(0) translate(4 134.75)">
<title>grc::User</title>
<!-- Node1 -->
<g id="Node000001" class="node">
<title>Node1</title>
<g id="a_Node000001"><a xlink:title="IRC에서 생성되는 User 객체를 정의하는 클래스.">
<polygon fill="#999999" stroke="#666666" points="107.65,-19.25 51.15,-19.25 51.15,0 107.65,0 107.65,-19.25"/>
<text text-anchor="middle" x="79.4" y="-5.75" font-family="Helvetica,sans-Serif" font-size="10.00">grc::User</text>
</a>
</g>
</g>
<!-- Node2 -->
<g id="Node000002" class="node">
<title>Node2</title>
<g id="a_Node000002"><a xlink:title=" ">
<polygon fill="white" stroke="#666666" points="28.8,-130.75 0,-130.75 0,-111.5 28.8,-111.5 28.8,-130.75"/>
<text text-anchor="middle" x="14.4" y="-117.25" font-family="Helvetica,sans-Serif" font-size="10.00">int</text>
</a>
</g>
</g>
<!-- Node2&#45;&gt;Node1 -->
<g id="edge1_Node000001_Node000002" class="edge">
<title>Node2&#45;&gt;Node1</title>
<g id="a_edge1_Node000001_Node000002"><a xlink:title=" ">
<path fill="none" stroke="#9a32cd" stroke-dasharray="5,2" d="M14.62,-99.74C15.78,-81.71 19.93,-55.51 33.4,-37.25 38.99,-29.68 47.43,-23.91 55.56,-19.72"/>
<polygon fill="#9a32cd" stroke="#9a32cd" points="11.13,-99.57 14.27,-109.68 18.12,-99.82 11.13,-99.57"/>
</a>
</g>
<text text-anchor="middle" x="54.4" y="-61.5" font-family="Helvetica,sans-Serif" font-size="10.00" fill="grey"> mSocket</text>
</g>
<!-- Node3 -->
<g id="Node000003" class="node">
<title>Node3</title>
<g id="a_Node000003"><a xlink:title=" ">
<polygon fill="white" stroke="#666666" points="96.4,-130.75 62.4,-130.75 62.4,-111.5 96.4,-111.5 96.4,-130.75"/>
<text text-anchor="middle" x="79.4" y="-117.25" font-family="Helvetica,sans-Serif" font-size="10.00">bool</text>
</a>
</g>
</g>
<!-- Node3&#45;&gt;Node1 -->
<g id="edge2_Node000001_Node000003" class="edge">
<title>Node3&#45;&gt;Node1</title>
<g id="a_edge2_Node000001_Node000003"><a xlink:title=" ">
<path fill="none" stroke="#9a32cd" stroke-dasharray="5,2" d="M79.4,-99.92C79.4,-76 79.4,-37.22 79.4,-19.71"/>
<polygon fill="#9a32cd" stroke="#9a32cd" points="75.9,-99.65 79.4,-109.65 82.9,-99.65 75.9,-99.65"/>
</a>
</g>
<text text-anchor="middle" x="121.78" y="-67.12" font-family="Helvetica,sans-Serif" font-size="10.00" fill="grey"> mbIsAuthenticated</text>
<text text-anchor="middle" x="121.78" y="-55.88" font-family="Helvetica,sans-Serif" font-size="10.00" fill="grey">mbIsRegistered</text>
</g>
<!-- Node4 -->
<g id="Node000004" class="node">
<title>Node4</title>
<g id="a_Node000004"><a xlink:title=" ">
<polygon fill="white" stroke="#666666" points="207.4,-130.75 167.4,-130.75 167.4,-111.5 207.4,-111.5 207.4,-130.75"/>
<text text-anchor="middle" x="187.4" y="-117.25" font-family="Helvetica,sans-Serif" font-size="10.00">string</text>
</a>
</g>
</g>
<!-- Node4&#45;&gt;Node1 -->
<g id="edge3_Node000001_Node000004" class="edge">
<title>Node4&#45;&gt;Node1</title>
<g id="a_edge3_Node000001_Node000004"><a xlink:title=" ">
<path fill="none" stroke="#9a32cd" stroke-dasharray="5,2" d="M187.31,-99.74C186.13,-81.11 181.48,-54 165.4,-37.25 150.46,-21.69 126.64,-15.17 107.85,-12.46"/>
<polygon fill="#9a32cd" stroke="#9a32cd" points="183.81,-99.65 187.63,-109.53 190.81,-99.42 183.81,-99.65"/>
</a>
</g>
<text text-anchor="middle" x="216.78" y="-84" font-family="Helvetica,sans-Serif" font-size="10.00" fill="grey"> mHostname</text>
<text text-anchor="middle" x="216.78" y="-72.75" font-family="Helvetica,sans-Serif" font-size="10.00" fill="grey">mNickname</text>
<text text-anchor="middle" x="216.78" y="-61.5" font-family="Helvetica,sans-Serif" font-size="10.00" fill="grey">mRealname</text>
<text text-anchor="middle" x="216.78" y="-50.25" font-family="Helvetica,sans-Serif" font-size="10.00" fill="grey">mServername</text>
<text text-anchor="middle" x="216.78" y="-39" font-family="Helvetica,sans-Serif" font-size="10.00" fill="grey">mUsername</text>
</g>
</g>
</svg>
