<?xml version="1.0" encoding="UTF-8" standalone="no"?>
<!DOCTYPE svg PUBLIC "-//W3C//DTD SVG 1.1//EN"
 "http://www.w3.org/Graphics/SVG/1.1/DTD/svg11.dtd">
<!-- Generated by graphviz version 10.0.1 (20240210.2158)
 -->
<!-- Title: gdf::KernelEvent Pages: 1 -->
<svg width="379pt" height="105pt"
 viewBox="0.00 0.00 378.75 105.00" xmlns="http://www.w3.org/2000/svg" xmlns:xlink="http://www.w3.org/1999/xlink">

<svg id="main" version="1.1" xmlns="http://www.w3.org/2000/svg" xmlns:xlink="http://www.w3.org/1999/xlink" xml:space="preserve" onload="init(evt)">
<style type="text/css"><![CDATA[
.node, .edge {opacity: 0.7;}
.node.selected, .edge.selected {opacity: 1;}
.edge:hover path { stroke: red; }
.edge:hover polygon { stroke: red; fill: red; }
]]></style>
<script type="application/ecmascript" xlink:href="svg.min.js"/>
<svg id="graph" class="graph">
<g id="graph0" class="graph" transform="scale(1 1) rotate(0) translate(4 101)">
<title>gdf::KernelEvent</title>
<!-- Node1 -->
<g id="Node000001" class="node">
<title>Node1</title>
<g id="a_Node000001"><a xlink:title="BSD계열 유닉스 커널의 이벤트를 추상화한 클래스 시스템 내부의 다양한 이벤트(FD,Socket)을 식별하고 이벤트 유형을 파악하는 관리 기능을 제공한다.">
<polygon fill="#999999" stroke="#666666" points="233.88,-19.25 145.12,-19.25 145.12,0 233.88,0 233.88,-19.25"/>
<text text-anchor="middle" x="189.5" y="-5.75" font-family="Helvetica,sans-Serif" font-size="10.00">gdf::KernelEvent</text>
</a>
</g>
</g>
<!-- Node2 -->
<g id="Node000002" class="node">
<title>Node2</title>
<g id="a_Node000002"><a xlink:title=" ">
<polygon fill="white" stroke="#666666" points="97,-97 0,-97 0,-77.75 97,-77.75 97,-97"/>
<text text-anchor="middle" x="48.5" y="-83.5" font-family="Helvetica,sans-Serif" font-size="10.00">unsigned long long</text>
</a>
</g>
</g>
<!-- Node2&#45;&gt;Node1 -->
<g id="edge1_Node000001_Node000002" class="edge">
<title>Node2&#45;&gt;Node1</title>
<g id="a_edge1_Node000001_Node000002"><a xlink:title=" ">
<path fill="none" stroke="#9a32cd" stroke-dasharray="5,2" d="M59.18,-67.77C66.07,-57.34 75.94,-44.92 87.75,-37.25 104.67,-26.25 125.94,-19.79 144.65,-16"/>
<polygon fill="#9a32cd" stroke="#9a32cd" points="56.37,-65.64 54.11,-75.99 62.33,-69.31 56.37,-65.64"/>
</a>
</g>
<text text-anchor="middle" x="111.88" y="-44.62" font-family="Helvetica,sans-Serif" font-size="10.00" fill="grey"> mIdentifier</text>
</g>
<!-- Node3 -->
<g id="Node000003" class="node">
<title>Node3</title>
<g id="a_Node000003"><a xlink:title=" ">
<polygon fill="white" stroke="#666666" points="152.38,-97 114.62,-97 114.62,-77.75 152.38,-77.75 152.38,-97"/>
<text text-anchor="middle" x="133.5" y="-83.5" font-family="Helvetica,sans-Serif" font-size="10.00">short</text>
</a>
</g>
</g>
<!-- Node3&#45;&gt;Node1 -->
<g id="edge2_Node000001_Node000003" class="edge">
<title>Node3&#45;&gt;Node1</title>
<g id="a_edge2_Node000001_Node000003"><a xlink:title=" ">
<path fill="none" stroke="#9a32cd" stroke-dasharray="5,2" d="M138.35,-66.41C141.34,-56.91 145.89,-45.8 152.5,-37.25 158.02,-30.11 165.96,-24.05 173.07,-19.52"/>
<polygon fill="#9a32cd" stroke="#9a32cd" points="135.04,-65.23 135.76,-75.8 141.79,-67.09 135.04,-65.23"/>
</a>
</g>
<text text-anchor="middle" x="169" y="-50.25" font-family="Helvetica,sans-Serif" font-size="10.00" fill="grey"> mFilter</text>
<text text-anchor="middle" x="169" y="-39" font-family="Helvetica,sans-Serif" font-size="10.00" fill="grey">mFlags</text>
</g>
<!-- Node4 -->
<g id="Node000004" class="node">
<title>Node4</title>
<g id="a_Node000004"><a xlink:title=" ">
<polygon fill="white" stroke="#666666" points="203.9,-97 175.1,-97 175.1,-77.75 203.9,-77.75 203.9,-97"/>
<text text-anchor="middle" x="189.5" y="-83.5" font-family="Helvetica,sans-Serif" font-size="10.00">int</text>
</a>
</g>
</g>
<!-- Node4&#45;&gt;Node1 -->
<g id="edge3_Node000001_Node000004" class="edge">
<title>Node4&#45;&gt;Node1</title>
<g id="a_edge3_Node000001_Node000004"><a xlink:title=" ">
<path fill="none" stroke="#9a32cd" stroke-dasharray="5,2" d="M189.5,-66.1C189.5,-50.95 189.5,-30.98 189.5,-19.6"/>
<polygon fill="#9a32cd" stroke="#9a32cd" points="186,-65.87 189.5,-75.87 193,-65.87 186,-65.87"/>
</a>
</g>
<text text-anchor="middle" x="218" y="-44.62" font-family="Helvetica,sans-Serif" font-size="10.00" fill="grey"> mFilterFlags</text>
</g>
<!-- Node5 -->
<g id="Node000005" class="node">
<title>Node5</title>
<g id="a_Node000005"><a xlink:title=" ">
<polygon fill="white" stroke="#666666" points="297,-97 242,-97 242,-77.75 297,-77.75 297,-97"/>
<text text-anchor="middle" x="269.5" y="-83.5" font-family="Helvetica,sans-Serif" font-size="10.00">long long</text>
</a>
</g>
</g>
<!-- Node5&#45;&gt;Node1 -->
<g id="edge4_Node000001_Node000005" class="edge">
<title>Node5&#45;&gt;Node1</title>
<g id="a_edge4_Node000001_Node000005"><a xlink:title=" ">
<path fill="none" stroke="#9a32cd" stroke-dasharray="5,2" d="M264.23,-66.47C260.8,-56.67 255.45,-45.27 247.5,-37.25 239.86,-29.54 229.57,-23.83 219.78,-19.72"/>
<polygon fill="#9a32cd" stroke="#9a32cd" points="260.82,-67.29 267.07,-75.84 267.52,-65.25 260.82,-67.29"/>
</a>
</g>
<text text-anchor="middle" x="276.62" y="-44.62" font-family="Helvetica,sans-Serif" font-size="10.00" fill="grey"> mData</text>
</g>
<!-- Node6 -->
<g id="Node000006" class="node">
<title>Node6</title>
<g id="a_Node000006"><a xlink:title=" ">
<polygon fill="white" stroke="#666666" points="355.88,-97 315.12,-97 315.12,-77.75 355.88,-77.75 355.88,-97"/>
<text text-anchor="middle" x="335.5" y="-83.5" font-family="Helvetica,sans-Serif" font-size="10.00">void *</text>
</a>
</g>
</g>
<!-- Node6&#45;&gt;Node1 -->
<g id="edge5_Node000001_Node000006" class="edge">
<title>Node6&#45;&gt;Node1</title>
<g id="a_edge5_Node000001_Node000006"><a xlink:title=" ">
<path fill="none" stroke="#9a32cd" stroke-dasharray="5,2" d="M324.95,-67.71C318.12,-57.27 308.31,-44.85 296.5,-37.25 277.99,-25.34 254.52,-18.75 234.27,-15.12"/>
<polygon fill="#9a32cd" stroke="#9a32cd" points="321.78,-69.23 329.96,-75.96 327.76,-65.6 321.78,-69.23"/>
</a>
</g>
<text text-anchor="middle" x="344.12" y="-44.62" font-family="Helvetica,sans-Serif" font-size="10.00" fill="grey"> mUserData</text>
</g>
</g>
</svg>
</svg>

<style type='text/css'>
<![CDATA[
[data-mouse-over-selected='false'] { opacity: 0.7; }
[data-mouse-over-selected='true']  { opacity: 1.0; }
]]>
</style>
<script type="application/ecmascript"><![CDATA[
document.addEventListener('DOMContentLoaded', (event) => {
  highlightEdges();
  highlightAdjacentNodes();
});
]]></script>
</svg>
