<?xml version="1.0" encoding="UTF-8" standalone="no"?>
<!DOCTYPE svg PUBLIC "-//W3C//DTD SVG 1.1//EN"
 "http://www.w3.org/Graphics/SVG/1.1/DTD/svg11.dtd">
<!-- Generated by graphviz version 10.0.1 (20240210.2158)
 -->
<!-- Title: LogLevel Pages: 1 -->
<svg width="600pt" height="150pt"
 viewBox="0.00 0.00 600.38 150.00" xmlns="http://www.w3.org/2000/svg" xmlns:xlink="http://www.w3.org/1999/xlink">
<g id="graph0" class="graph" transform="scale(1 1) rotate(0) translate(4 146)">
<title>LogLevel</title>
<!-- Node1 -->
<g id="Node000001" class="node">
<title>Node1</title>
<g id="a_Node000001"><a xlink:title="GlobalLogger 클래스에 대한 별칭을 제공하는 클래스">
<polygon fill="#999999" stroke="#666666" points="298.5,-19.25 243.5,-19.25 243.5,0 298.5,0 298.5,-19.25"/>
<text text-anchor="middle" x="271" y="-5.75" font-family="Helvetica,sans-Serif" font-size="10.00">LogLevel</text>
</a>
</g>
</g>
<!-- Node2 -->
<g id="Node000002" class="node">
<title>Node2</title>
<g id="a_Node000002"><a xlink:href="class_global_logger.html" target="_top" xlink:title="전역으로 사용할 수 있는 로깅시스템 클래스이다.">
<polygon fill="white" stroke="#666666" points="307.5,-75.5 234.5,-75.5 234.5,-56.25 307.5,-56.25 307.5,-75.5"/>
<text text-anchor="middle" x="271" y="-62" font-family="Helvetica,sans-Serif" font-size="10.00">GlobalLogger</text>
</a>
</g>
</g>
<!-- Node2&#45;&gt;Node1 -->
<g id="edge1_Node000001_Node000002" class="edge">
<title>Node2&#45;&gt;Node1</title>
<g id="a_edge1_Node000001_Node000002"><a xlink:title=" ">
<path fill="none" stroke="#63b8ff" d="M271,-44.69C271,-35.98 271,-26.24 271,-19.42"/>
<polygon fill="#63b8ff" stroke="#63b8ff" points="267.5,-44.4 271,-54.4 274.5,-44.4 267.5,-44.4"/>
</a>
</g>
</g>
<!-- Node3 -->
<g id="Node000003" class="node">
<title>Node3</title>
<g id="a_Node000003"><a xlink:title=" ">
<polygon fill="white" stroke="#666666" points="34,-142 0,-142 0,-122.75 34,-122.75 34,-142"/>
<text text-anchor="middle" x="17" y="-128.5" font-family="Helvetica,sans-Serif" font-size="10.00">bool</text>
</a>
</g>
</g>
<!-- Node3&#45;&gt;Node2 -->
<g id="edge2_Node000002_Node000003" class="edge">
<title>Node3&#45;&gt;Node2</title>
<g id="a_edge2_Node000002_Node000003"><a xlink:title=" ">
<path fill="none" stroke="#9a32cd" stroke-dasharray="5,2" d="M28.93,-113.12C34.7,-105.8 42.27,-98.04 51,-93.5 82.06,-77.34 180.15,-70.7 234.26,-68.21"/>
<polygon fill="#9a32cd" stroke="#9a32cd" points="26.09,-111.07 23.13,-121.25 31.79,-115.14 26.09,-111.07"/>
</a>
</g>
<text text-anchor="middle" x="85.5" y="-95.25" font-family="Helvetica,sans-Serif" font-size="10.00" fill="grey"> bIsStringTarget</text>
</g>
<!-- Node4 -->
<g id="Node000004" class="node">
<title>Node4</title>
<g id="a_Node000004"><a xlink:title=" ">
<polygon fill="white" stroke="#666666" points="132.38,-142 85.62,-142 85.62,-122.75 132.38,-122.75 132.38,-142"/>
<text text-anchor="middle" x="109" y="-128.5" font-family="Helvetica,sans-Serif" font-size="10.00">string *</text>
</a>
</g>
</g>
<!-- Node4&#45;&gt;Node2 -->
<g id="edge3_Node000002_Node000004" class="edge">
<title>Node4&#45;&gt;Node2</title>
<g id="a_edge3_Node000002_Node000004"><a xlink:title=" ">
<path fill="none" stroke="#9a32cd" stroke-dasharray="5,2" d="M118.96,-112.68C123.62,-105.64 129.79,-98.21 137.25,-93.5 166.38,-75.11 205.6,-69.02 234.03,-67.19"/>
<polygon fill="#9a32cd" stroke="#9a32cd" points="116.09,-110.65 114.03,-121.04 122.12,-114.21 116.09,-110.65"/>
</a>
</g>
<text text-anchor="middle" x="168.88" y="-95.25" font-family="Helvetica,sans-Serif" font-size="10.00" fill="grey"> mStringTarget</text>
</g>
<!-- Node5 -->
<g id="Node000005" class="node">
<title>Node5</title>
<g id="a_Node000005"><a xlink:title=" ">
<polygon fill="white" stroke="#666666" points="210.4,-142 181.6,-142 181.6,-122.75 210.4,-122.75 210.4,-142"/>
<text text-anchor="middle" x="196" y="-128.5" font-family="Helvetica,sans-Serif" font-size="10.00">int</text>
</a>
</g>
</g>
<!-- Node5&#45;&gt;Node2 -->
<g id="edge4_Node000002_Node000005" class="edge">
<title>Node5&#45;&gt;Node2</title>
<g id="a_edge4_Node000002_Node000005"><a xlink:title=" ">
<path fill="none" stroke="#9a32cd" stroke-dasharray="5,2" d="M201.83,-111.78C204.5,-105.35 208.22,-98.56 213.25,-93.5 220.96,-85.75 231.34,-80.02 241.18,-75.89"/>
<polygon fill="#9a32cd" stroke="#9a32cd" points="198.57,-110.51 198.6,-121.1 205.18,-112.8 198.57,-110.51"/>
</a>
</g>
<text text-anchor="middle" x="238.88" y="-95.25" font-family="Helvetica,sans-Serif" font-size="10.00" fill="grey"> mFDTarget</text>
</g>
<!-- Node6 -->
<g id="Node000006" class="node">
<title>Node6</title>
<g id="a_Node000006"><a xlink:title=" ">
<polygon fill="white" stroke="#666666" points="309.25,-142 228.75,-142 228.75,-122.75 309.25,-122.75 309.25,-142"/>
<text text-anchor="middle" x="269" y="-128.5" font-family="Helvetica,sans-Serif" font-size="10.00">eSeverityLevel</text>
</a>
</g>
</g>
<!-- Node6&#45;&gt;Node2 -->
<g id="edge5_Node000002_Node000006" class="edge">
<title>Node6&#45;&gt;Node2</title>
<g id="a_edge5_Node000002_Node000006"><a xlink:title=" ">
<path fill="none" stroke="#9a32cd" stroke-dasharray="5,2" d="M269.62,-111.27C269.99,-99.37 270.44,-84.88 270.72,-75.77"/>
<polygon fill="#9a32cd" stroke="#9a32cd" points="266.14,-110.79 269.33,-120.89 273.13,-111.01 266.14,-110.79"/>
</a>
</g>
<text text-anchor="middle" x="287.25" y="-95.25" font-family="Helvetica,sans-Serif" font-size="10.00" fill="grey"> mLevel</text>
</g>
<!-- Node7 -->
<g id="Node000007" class="node">
<title>Node7</title>
<g id="a_Node000007"><a xlink:title=" ">
<polygon fill="white" stroke="#666666" points="432.25,-142 327.75,-142 327.75,-122.75 432.25,-122.75 432.25,-142"/>
<text text-anchor="middle" x="380" y="-128.5" font-family="Helvetica,sans-Serif" font-size="10.00">vector&lt; std::string &gt;</text>
</a>
</g>
</g>
<!-- Node7&#45;&gt;Node2 -->
<g id="edge6_Node000002_Node000007" class="edge">
<title>Node7&#45;&gt;Node2</title>
<g id="a_edge6_Node000002_Node000007"><a xlink:title=" ">
<path fill="none" stroke="#9a32cd" stroke-dasharray="5,2" d="M354.95,-116.55C333.8,-104.03 304.19,-86.52 286.38,-75.98"/>
<polygon fill="#9a32cd" stroke="#9a32cd" points="353.15,-119.56 363.54,-121.64 356.72,-113.53 353.15,-119.56"/>
</a>
</g>
<text text-anchor="middle" x="355.62" y="-95.25" font-family="Helvetica,sans-Serif" font-size="10.00" fill="grey"> mLevelStr</text>
</g>
<!-- Node8 -->
<g id="Node000008" class="node">
<title>Node8</title>
<g id="a_Node000008"><a xlink:title=" ">
<polygon fill="white" stroke="#666666" points="539.38,-142 450.62,-142 450.62,-122.75 539.38,-122.75 539.38,-142"/>
<text text-anchor="middle" x="495" y="-128.5" font-family="Helvetica,sans-Serif" font-size="10.00">pthread_mutex_t</text>
</a>
</g>
</g>
<!-- Node8&#45;&gt;Node2 -->
<g id="edge7_Node000002_Node000008" class="edge">
<title>Node8&#45;&gt;Node2</title>
<g id="a_edge7_Node000002_Node000008"><a xlink:title=" ">
<path fill="none" stroke="#9a32cd" stroke-dasharray="5,2" d="M459.52,-118.44C437.63,-110.69 408.87,-100.93 383,-93.5 358.12,-86.35 329.76,-79.62 307.79,-74.72"/>
<polygon fill="#9a32cd" stroke="#9a32cd" points="458.28,-121.71 468.87,-121.78 460.63,-115.12 458.28,-121.71"/>
</a>
</g>
<text text-anchor="middle" x="444" y="-95.25" font-family="Helvetica,sans-Serif" font-size="10.00" fill="grey"> mFileMutex</text>
</g>
<!-- Node9 -->
<g id="Node000009" class="node">
<title>Node9</title>
<g id="a_Node000009"><a xlink:title=" ">
<polygon fill="white" stroke="#666666" points="592.38,-142 557.62,-142 557.62,-122.75 592.38,-122.75 592.38,-142"/>
<text text-anchor="middle" x="575" y="-128.5" font-family="Helvetica,sans-Serif" font-size="10.00">char</text>
</a>
</g>
</g>
<!-- Node9&#45;&gt;Node2 -->
<g id="edge8_Node000002_Node000009" class="edge">
<title>Node9&#45;&gt;Node2</title>
<g id="a_edge8_Node000002_Node000009"><a xlink:title=" ">
<path fill="none" stroke="#9a32cd" stroke-dasharray="5,2" d="M546.93,-118.73C527.19,-110.34 499.95,-99.76 475,-93.5 417.67,-79.11 349.2,-72.2 307.96,-69.11"/>
<polygon fill="#9a32cd" stroke="#9a32cd" points="545.38,-121.88 555.95,-122.64 548.17,-115.45 545.38,-121.88"/>
</a>
</g>
<text text-anchor="middle" x="536.12" y="-95.25" font-family="Helvetica,sans-Serif" font-size="10.00" fill="grey"> mHostname</text>
</g>
</g>
</svg>
