<?xml version="1.0" encoding="UTF-8" standalone="no"?>
<!DOCTYPE svg PUBLIC "-//W3C//DTD SVG 1.1//EN"
 "http://www.w3.org/Graphics/SVG/1.1/DTD/svg11.dtd">
<!-- Generated by graphviz version 10.0.1 (20240210.2158)
 -->
<!-- Title: gdf::DisplayBuffer Pages: 1 -->
<svg width="361pt" height="105pt"
 viewBox="0.00 0.00 360.75 105.00" xmlns="http://www.w3.org/2000/svg" xmlns:xlink="http://www.w3.org/1999/xlink">

<svg id="main" version="1.1" xmlns="http://www.w3.org/2000/svg" xmlns:xlink="http://www.w3.org/1999/xlink" xml:space="preserve" onload="init(evt)">
<style type="text/css"><![CDATA[
.node, .edge {opacity: 0.7;}
.node.selected, .edge.selected {opacity: 1;}
.edge:hover path { stroke: red; }
.edge:hover polygon { stroke: red; fill: red; }
]]></style>
<script type="application/ecmascript" xlink:href="svg.min.js"/>
<svg id="graph" class="graph">
<g id="graph0" class="graph" transform="scale(1 1) rotate(0) translate(4 101)">
<title>gdf::DisplayBuffer</title>
<!-- Node1 -->
<g id="Node000001" class="node">
<title>Node1</title>
<g id="a_Node000001"><a xlink:title="디스플레이에 표시되어야하는 텍스트를 저장하는 클래스">
<polygon fill="#999999" stroke="#666666" points="154.38,-19.25 59.62,-19.25 59.62,0 154.38,0 154.38,-19.25"/>
<text text-anchor="middle" x="107" y="-5.75" font-family="Helvetica,sans-Serif" font-size="10.00">gdf::DisplayBuffer</text>
</a>
</g>
</g>
<!-- Node2 -->
<g id="Node000002" class="node">
<title>Node2</title>
<g id="a_Node000002"><a xlink:title=" ">
<polygon fill="white" stroke="#666666" points="40,-97 0,-97 0,-77.75 40,-77.75 40,-97"/>
<text text-anchor="middle" x="20" y="-83.5" font-family="Helvetica,sans-Serif" font-size="10.00">string</text>
</a>
</g>
</g>
<!-- Node2&#45;&gt;Node1 -->
<g id="edge1_Node000001_Node000002" class="edge">
<title>Node2&#45;&gt;Node1</title>
<g id="a_edge1_Node000001_Node000002"><a xlink:title=" ">
<path fill="none" stroke="#9a32cd" stroke-dasharray="5,2" d="M33.64,-68.35C41.63,-58.49 52.28,-46.45 63.25,-37.25 71.29,-30.51 81.21,-24.33 89.58,-19.62"/>
<polygon fill="#9a32cd" stroke="#9a32cd" points="30.98,-66.08 27.57,-76.11 36.49,-70.4 30.98,-66.08"/>
</a>
</g>
<text text-anchor="middle" x="83.88" y="-50.25" font-family="Helvetica,sans-Serif" font-size="10.00" fill="grey"> mFooter</text>
<text text-anchor="middle" x="83.88" y="-39" font-family="Helvetica,sans-Serif" font-size="10.00" fill="grey">mHeader</text>
</g>
<!-- Node3 -->
<g id="Node000003" class="node">
<title>Node3</title>
<g id="a_Node000003"><a xlink:title=" ">
<polygon fill="white" stroke="#666666" points="155.5,-97 58.5,-97 58.5,-77.75 155.5,-77.75 155.5,-97"/>
<text text-anchor="middle" x="107" y="-83.5" font-family="Helvetica,sans-Serif" font-size="10.00">unsigned long long</text>
</a>
</g>
</g>
<!-- Node3&#45;&gt;Node1 -->
<g id="edge2_Node000001_Node000003" class="edge">
<title>Node3&#45;&gt;Node1</title>
<g id="a_edge2_Node000001_Node000003"><a xlink:title=" ">
<path fill="none" stroke="#9a32cd" stroke-dasharray="5,2" d="M107,-66.1C107,-50.95 107,-30.98 107,-19.6"/>
<polygon fill="#9a32cd" stroke="#9a32cd" points="103.5,-65.87 107,-75.87 110.5,-65.87 103.5,-65.87"/>
</a>
</g>
<text text-anchor="middle" x="162.5" y="-44.62" font-family="Helvetica,sans-Serif" font-size="10.00" fill="grey"> mContentBufferCapacity</text>
</g>
<!-- Node4 -->
<g id="Node000004" class="node">
<title>Node4</title>
<g id="a_Node000004"><a xlink:title=" ">
<polygon fill="white" stroke="#666666" points="352.75,-97 173.25,-97 173.25,-77.75 352.75,-77.75 352.75,-97"/>
<text text-anchor="middle" x="263" y="-83.5" font-family="Helvetica,sans-Serif" font-size="10.00">deque&lt; gdf::DisplayBuffer::Content &gt;</text>
</a>
</g>
</g>
<!-- Node4&#45;&gt;Node1 -->
<g id="edge3_Node000001_Node000004" class="edge">
<title>Node4&#45;&gt;Node1</title>
<g id="a_edge3_Node000001_Node000004"><a xlink:title=" ">
<path fill="none" stroke="#9a32cd" stroke-dasharray="5,2" d="M252,-68.01C244.76,-57.46 234.35,-44.84 222,-37.25 201.84,-24.85 176.46,-18.22 154.68,-14.68"/>
<polygon fill="#9a32cd" stroke="#9a32cd" points="248.99,-69.79 257.33,-76.33 254.88,-66.02 248.99,-69.79"/>
</a>
</g>
<text text-anchor="middle" x="281" y="-44.62" font-family="Helvetica,sans-Serif" font-size="10.00" fill="grey"> mContentBuffer</text>
</g>
</g>
</svg>
</svg>

<style type='text/css'>
<![CDATA[
[data-mouse-over-selected='false'] { opacity: 0.7; }
[data-mouse-over-selected='true']  { opacity: 1.0; }
]]>
</style>
<script type="application/ecmascript"><![CDATA[
document.addEventListener('DOMContentLoaded', (event) => {
  highlightEdges();
  highlightAdjacentNodes();
});
]]></script>
</svg>
