<?xml version="1.0" encoding="UTF-8" standalone="no"?>
<!DOCTYPE svg PUBLIC "-//W3C//DTD SVG 1.1//EN"
 "http://www.w3.org/Graphics/SVG/1.1/DTD/svg11.dtd">
<!-- Generated by graphviz version 10.0.1 (20240210.2158)
 -->
<!-- Title: gdf::Network::Session Pages: 1 -->
<svg width="432pt" height="105pt"
 viewBox="0.00 0.00 432.25 105.00" xmlns="http://www.w3.org/2000/svg" xmlns:xlink="http://www.w3.org/1999/xlink">

<svg id="main" version="1.1" xmlns="http://www.w3.org/2000/svg" xmlns:xlink="http://www.w3.org/1999/xlink" xml:space="preserve" onload="init(evt)">
<style type="text/css"><![CDATA[
.node, .edge {opacity: 0.7;}
.node.selected, .edge.selected {opacity: 1;}
.edge:hover path { stroke: red; }
.edge:hover polygon { stroke: red; fill: red; }
]]></style>
<script type="application/ecmascript" xlink:href="svg.min.js"/>
<svg id="graph" class="graph">
<g id="graph0" class="graph" transform="scale(1 1) rotate(0) translate(4 101)">
<title>gdf::Network::Session</title>
<!-- Node1 -->
<g id="Node000001" class="node">
<title>Node1</title>
<g id="a_Node000001"><a xlink:title=" ">
<polygon fill="#999999" stroke="#666666" points="213,-19.25 99.5,-19.25 99.5,0 213,0 213,-19.25"/>
<text text-anchor="middle" x="156.25" y="-5.75" font-family="Helvetica,sans-Serif" font-size="10.00">gdf::Network::Session</text>
</a>
</g>
</g>
<!-- Node2 -->
<g id="Node000002" class="node">
<title>Node2</title>
<g id="a_Node000002"><a xlink:title=" ">
<polygon fill="white" stroke="#666666" points="68.5,-97 0,-97 0,-77.75 68.5,-77.75 68.5,-97"/>
<text text-anchor="middle" x="34.25" y="-83.5" font-family="Helvetica,sans-Serif" font-size="10.00">sockaddr_in</text>
</a>
</g>
</g>
<!-- Node2&#45;&gt;Node1 -->
<g id="edge1_Node000001_Node000002" class="edge">
<title>Node2&#45;&gt;Node1</title>
<g id="a_edge1_Node000001_Node000002"><a xlink:title=" ">
<path fill="none" stroke="#9a32cd" stroke-dasharray="5,2" d="M47.59,-68.85C56.28,-58.46 68.41,-45.71 81.5,-37.25 93.3,-29.63 107.57,-23.85 120.46,-19.66"/>
<polygon fill="#9a32cd" stroke="#9a32cd" points="45.1,-66.37 41.6,-76.36 50.57,-70.74 45.1,-66.37"/>
</a>
</g>
<text text-anchor="middle" x="92.12" y="-44.62" font-family="Helvetica,sans-Serif" font-size="10.00" fill="grey"> addr</text>
</g>
<!-- Node3 -->
<g id="Node000003" class="node">
<title>Node3</title>
<g id="a_Node000003"><a xlink:title=" ">
<polygon fill="white" stroke="#666666" points="115.65,-97 86.85,-97 86.85,-77.75 115.65,-77.75 115.65,-97"/>
<text text-anchor="middle" x="101.25" y="-83.5" font-family="Helvetica,sans-Serif" font-size="10.00">int</text>
</a>
</g>
</g>
<!-- Node3&#45;&gt;Node1 -->
<g id="edge2_Node000001_Node000003" class="edge">
<title>Node3&#45;&gt;Node1</title>
<g id="a_edge2_Node000001_Node000003"><a xlink:title=" ">
<path fill="none" stroke="#9a32cd" stroke-dasharray="5,2" d="M105.61,-66.09C108.35,-56.66 112.6,-45.69 119,-37.25 124.38,-30.15 132.18,-24.17 139.26,-19.69"/>
<polygon fill="#9a32cd" stroke="#9a32cd" points="102.22,-65.24 103.2,-75.79 109.01,-66.93 102.22,-65.24"/>
</a>
</g>
<text text-anchor="middle" x="134.38" y="-44.62" font-family="Helvetica,sans-Serif" font-size="10.00" fill="grey"> socket</text>
</g>
<!-- Node4 -->
<g id="Node000004" class="node">
<title>Node4</title>
<g id="a_Node000004"><a xlink:title=" ">
<polygon fill="white" stroke="#666666" points="175.25,-97 135.25,-97 135.25,-77.75 175.25,-77.75 175.25,-97"/>
<text text-anchor="middle" x="155.25" y="-83.5" font-family="Helvetica,sans-Serif" font-size="10.00">string</text>
</a>
</g>
</g>
<!-- Node4&#45;&gt;Node1 -->
<g id="edge3_Node000001_Node000004" class="edge">
<title>Node4&#45;&gt;Node1</title>
<g id="a_edge3_Node000001_Node000004"><a xlink:title=" ">
<path fill="none" stroke="#9a32cd" stroke-dasharray="5,2" d="M155.52,-66.1C155.72,-50.95 155.98,-30.98 156.13,-19.6"/>
<polygon fill="#9a32cd" stroke="#9a32cd" points="152.02,-65.83 155.39,-75.87 159.02,-65.92 152.02,-65.83"/>
</a>
</g>
<text text-anchor="middle" x="179.25" y="-50.25" font-family="Helvetica,sans-Serif" font-size="10.00" fill="grey"> recvBuffer</text>
<text text-anchor="middle" x="179.25" y="-39" font-family="Helvetica,sans-Serif" font-size="10.00" fill="grey">sendBuffer</text>
</g>
<!-- Node5 -->
<g id="Node000005" class="node">
<title>Node5</title>
<g id="a_Node000005"><a xlink:title=" ">
<polygon fill="white" stroke="#666666" points="290.75,-97 193.75,-97 193.75,-77.75 290.75,-77.75 290.75,-97"/>
<text text-anchor="middle" x="242.25" y="-83.5" font-family="Helvetica,sans-Serif" font-size="10.00">unsigned long long</text>
</a>
</g>
</g>
<!-- Node5&#45;&gt;Node1 -->
<g id="edge4_Node000001_Node000005" class="edge">
<title>Node5&#45;&gt;Node1</title>
<g id="a_edge4_Node000001_Node000005"><a xlink:title=" ">
<path fill="none" stroke="#9a32cd" stroke-dasharray="5,2" d="M231.87,-67.66C225.68,-57.73 217.11,-45.84 207.25,-37.25 198.96,-30.03 188.38,-24.1 179.01,-19.69"/>
<polygon fill="#9a32cd" stroke="#9a32cd" points="228.75,-69.27 236.83,-76.12 234.79,-65.73 228.75,-69.27"/>
</a>
</g>
<text text-anchor="middle" x="263.38" y="-44.62" font-family="Helvetica,sans-Serif" font-size="10.00" fill="grey"> sendBufferIndex</text>
</g>
<!-- Node6 -->
<g id="Node000006" class="node">
<title>Node6</title>
<g id="a_Node000006"><a xlink:title=" ">
<polygon fill="white" stroke="#666666" points="349.25,-97 315.25,-97 315.25,-77.75 349.25,-77.75 349.25,-97"/>
<text text-anchor="middle" x="332.25" y="-83.5" font-family="Helvetica,sans-Serif" font-size="10.00">bool</text>
</a>
</g>
</g>
<!-- Node6&#45;&gt;Node1 -->
<g id="edge5_Node000001_Node000006" class="edge">
<title>Node6&#45;&gt;Node1</title>
<g id="a_edge5_Node000001_Node000006"><a xlink:title=" ">
<path fill="none" stroke="#9a32cd" stroke-dasharray="5,2" d="M325.78,-66.86C321.34,-56.48 314.38,-44.41 304.25,-37.25 289.7,-26.96 248.59,-20.08 213.38,-15.89"/>
<polygon fill="#9a32cd" stroke="#9a32cd" points="322.45,-67.96 329.23,-76.1 329.01,-65.51 322.45,-67.96"/>
</a>
</g>
<text text-anchor="middle" x="373.25" y="-50.25" font-family="Helvetica,sans-Serif" font-size="10.00" fill="grey"> isReservedDisconnect</text>
<text text-anchor="middle" x="373.25" y="-39" font-family="Helvetica,sans-Serif" font-size="10.00" fill="grey">sendBufferRemain</text>
</g>
</g>
</svg>
</svg>

<style type='text/css'>
<![CDATA[
[data-mouse-over-selected='false'] { opacity: 0.7; }
[data-mouse-over-selected='true']  { opacity: 1.0; }
]]>
</style>
<script type="application/ecmascript"><![CDATA[
document.addEventListener('DOMContentLoaded', (event) => {
  highlightEdges();
  highlightAdjacentNodes();
});
]]></script>
</svg>
