<?xml version="1.0" encoding="UTF-8" standalone="no"?>
<!DOCTYPE svg PUBLIC "-//W3C//DTD SVG 1.1//EN"
 "http://www.w3.org/Graphics/SVG/1.1/DTD/svg11.dtd">
<!-- Generated by graphviz version 10.0.1 (20240210.2158)
 -->
<!-- Title: grc::Core Pages: 1 -->
<svg width="1005pt" height="787pt"
 viewBox="0.00 0.00 1005.00 787.25" xmlns="http://www.w3.org/2000/svg" xmlns:xlink="http://www.w3.org/1999/xlink">
<g id="graph0" class="graph" transform="scale(1 1) rotate(0) translate(4 783.25)">
<title>grc::Core</title>
<!-- Node1 -->
<g id="Node000001" class="node">
<title>Node1</title>
<g id="a_Node000001"><a xlink:title=" ">
<polygon fill="#999999" stroke="#666666" points="997,-509.25 940.5,-509.25 940.5,-490 997,-490 997,-509.25"/>
<text text-anchor="middle" x="968.75" y="-495.75" font-family="Helvetica,sans-Serif" font-size="10.00">grc::Core</text>
</a>
</g>
</g>
<!-- Node2 -->
<g id="Node000002" class="node">
<title>Node2</title>
<g id="a_Node000002"><a xlink:title=" ">
<polygon fill="white" stroke="#666666" points="443.4,-652.25 414.6,-652.25 414.6,-633 443.4,-633 443.4,-652.25"/>
<text text-anchor="middle" x="429" y="-638.75" font-family="Helvetica,sans-Serif" font-size="10.00">int</text>
</a>
</g>
</g>
<!-- Node2&#45;&gt;Node1 -->
<g id="edge1_Node000001_Node000002" class="edge">
<title>Node2&#45;&gt;Node1</title>
<g id="a_edge1_Node000001_Node000002"><a xlink:title=" ">
<path fill="none" stroke="#9a32cd" stroke-dasharray="5,2" d="M454.86,-642.79C544.01,-642.9 846.39,-639.18 922.5,-584.62 948.45,-566.02 960.87,-527.86 965.5,-509.68"/>
<polygon fill="#9a32cd" stroke="#9a32cd" points="455.05,-639.29 445.04,-642.75 455.03,-646.29 455.05,-639.29"/>
</a>
</g>
<text text-anchor="middle" x="724" y="-648.62" font-family="Helvetica,sans-Serif" font-size="10.00" fill="grey"> mLogFileFD</text>
<text text-anchor="middle" x="724" y="-637.38" font-family="Helvetica,sans-Serif" font-size="10.00" fill="grey">mPort</text>
</g>
<!-- Node5 -->
<g id="Node000005" class="node">
<title>Node5</title>
<g id="a_Node000005"><a xlink:href="classgdf_1_1_kernel_queue.html" target="_top" xlink:title="커널 이벤트 큐를 관리하는 클래스이다.">
<polygon fill="white" stroke="#666666" points="769.88,-740.25 678.12,-740.25 678.12,-721 769.88,-721 769.88,-740.25"/>
<text text-anchor="middle" x="724" y="-726.75" font-family="Helvetica,sans-Serif" font-size="10.00">gdf::KernelQueue</text>
</a>
</g>
</g>
<!-- Node2&#45;&gt;Node5 -->
<g id="edge5_Node000005_Node000002" class="edge">
<title>Node2&#45;&gt;Node5</title>
<g id="a_edge5_Node000005_Node000002"><a xlink:title=" ">
<path fill="none" stroke="#9a32cd" stroke-dasharray="5,2" d="M455.21,-643.6C498.49,-646.25 588.57,-656.13 653.75,-692.88 663.81,-698.55 662.09,-705.29 671.75,-711.62 677.07,-715.11 683.11,-718.07 689.14,-720.55"/>
<polygon fill="#9a32cd" stroke="#9a32cd" points="455.51,-640.11 445.34,-643.08 455.14,-647.1 455.51,-640.11"/>
</a>
</g>
<text text-anchor="middle" x="601.62" y="-716.88" font-family="Helvetica,sans-Serif" font-size="10.00" fill="grey"> mEventCount</text>
<text text-anchor="middle" x="601.62" y="-705.62" font-family="Helvetica,sans-Serif" font-size="10.00" fill="grey">mEventIndex</text>
<text text-anchor="middle" x="601.62" y="-694.38" font-family="Helvetica,sans-Serif" font-size="10.00" fill="grey">mKqueue</text>
</g>
<!-- Node8 -->
<g id="Node000008" class="node">
<title>Node8</title>
<g id="a_Node000008"><a xlink:href="classgdf_1_1_network.html" target="_top" xlink:title=" ">
<polygon fill="white" stroke="#666666" points="760.12,-531.25 687.88,-531.25 687.88,-512 760.12,-512 760.12,-531.25"/>
<text text-anchor="middle" x="724" y="-517.75" font-family="Helvetica,sans-Serif" font-size="10.00">gdf::Network</text>
</a>
</g>
</g>
<!-- Node2&#45;&gt;Node8 -->
<g id="edge9_Node000008_Node000002" class="edge">
<title>Node2&#45;&gt;Node8</title>
<g id="a_edge9_Node000008_Node000002"><a xlink:title=" ">
<path fill="none" stroke="#9a32cd" stroke-dasharray="5,2" d="M454.87,-637.39C512.71,-625.2 651.56,-595.86 653.75,-594.62 681.93,-578.8 705.55,-547.73 716.48,-531.71"/>
<polygon fill="#9a32cd" stroke="#9a32cd" points="454.38,-633.92 445.31,-639.4 455.82,-640.77 454.38,-633.92"/>
</a>
</g>
<text text-anchor="middle" x="601.62" y="-617.38" font-family="Helvetica,sans-Serif" font-size="10.00" fill="grey"> mServerSocket</text>
</g>
<!-- Node3 -->
<g id="Node000003" class="node">
<title>Node3</title>
<g id="a_Node000003"><a xlink:title=" ">
<polygon fill="white" stroke="#666666" points="744,-702.25 704,-702.25 704,-683 744,-683 744,-702.25"/>
<text text-anchor="middle" x="724" y="-688.75" font-family="Helvetica,sans-Serif" font-size="10.00">string</text>
</a>
</g>
</g>
<!-- Node3&#45;&gt;Node1 -->
<g id="edge2_Node000001_Node000003" class="edge">
<title>Node3&#45;&gt;Node1</title>
<g id="a_edge2_Node000001_Node000003"><a xlink:title=" ">
<path fill="none" stroke="#9a32cd" stroke-dasharray="5,2" d="M755.66,-690.91C804.87,-687.54 898.43,-678.39 922.5,-656.62 966.47,-616.86 968.81,-537.38 968.18,-509.54"/>
<polygon fill="#9a32cd" stroke="#9a32cd" points="755.44,-687.42 745.68,-691.55 755.88,-694.4 755.44,-687.42"/>
</a>
</g>
<text text-anchor="middle" x="858.38" y="-688.38" font-family="Helvetica,sans-Serif" font-size="10.00" fill="grey"> mPassword</text>
</g>
<!-- Node4 -->
<g id="Node000004" class="node">
<title>Node4</title>
<g id="a_Node000004"><a xlink:title=" ">
<polygon fill="white" stroke="#666666" points="446,-464.25 412,-464.25 412,-445 446,-445 446,-464.25"/>
<text text-anchor="middle" x="429" y="-450.75" font-family="Helvetica,sans-Serif" font-size="10.00">bool</text>
</a>
</g>
</g>
<!-- Node4&#45;&gt;Node1 -->
<g id="edge3_Node000001_Node000004" class="edge">
<title>Node4&#45;&gt;Node1</title>
<g id="a_edge3_Node000001_Node000004"><a xlink:title=" ">
<path fill="none" stroke="#9a32cd" stroke-dasharray="5,2" d="M457.82,-456.95C550.46,-464.71 847.78,-489.59 940.12,-497.31"/>
<polygon fill="#9a32cd" stroke="#9a32cd" points="458.15,-453.47 447.9,-456.12 457.57,-460.44 458.15,-453.47"/>
</a>
</g>
<text text-anchor="middle" x="724" y="-484.38" font-family="Helvetica,sans-Serif" font-size="10.00" fill="grey"> mbRunning</text>
</g>
<!-- Node12 -->
<g id="Node000012" class="node">
<title>Node12</title>
<g id="a_Node000012"><a xlink:href="classgdf_1_1_display_console.html" target="_top" xlink:title="콘솔화면에 텍스트와 프롬프트를 관리하고 출력하는 클래스">
<polygon fill="white" stroke="#666666" points="776.25,-331.25 671.75,-331.25 671.75,-312 776.25,-312 776.25,-331.25"/>
<text text-anchor="middle" x="724" y="-317.75" font-family="Helvetica,sans-Serif" font-size="10.00">gdf::DisplayConsole</text>
</a>
</g>
</g>
<!-- Node4&#45;&gt;Node12 -->
<g id="edge23_Node000012_Node000004" class="edge">
<title>Node4&#45;&gt;Node12</title>
<g id="a_edge23_Node000012_Node000004"><a xlink:title=" ">
<path fill="none" stroke="#9a32cd" stroke-dasharray="5,2" d="M457.49,-454.69C478.93,-453.62 508.79,-449.59 531.5,-436.62 542.17,-430.53 538.95,-421.94 549.5,-415.62 590.2,-391.24 612.28,-415.68 653.75,-392.62 681.44,-377.23 705.1,-347.29 716.22,-331.66"/>
<polygon fill="#9a32cd" stroke="#9a32cd" points="457.65,-451.18 447.76,-454.98 457.86,-458.18 457.65,-451.18"/>
</a>
</g>
<text text-anchor="middle" x="601.62" y="-451.12" font-family="Helvetica,sans-Serif" font-size="10.00" fill="grey"> bIsFailed</text>
<text text-anchor="middle" x="601.62" y="-439.88" font-family="Helvetica,sans-Serif" font-size="10.00" fill="grey">bIsScreenBufferRemain</text>
<text text-anchor="middle" x="601.62" y="-428.62" font-family="Helvetica,sans-Serif" font-size="10.00" fill="grey">bIsScreenUpdated</text>
<text text-anchor="middle" x="601.62" y="-417.38" font-family="Helvetica,sans-Serif" font-size="10.00" fill="grey">bIsTimestampEnabled</text>
</g>
<!-- Node5&#45;&gt;Node1 -->
<g id="edge4_Node000001_Node000005" class="edge">
<title>Node5&#45;&gt;Node1</title>
<g id="a_edge4_Node000001_Node000005"><a xlink:title=" ">
<path fill="none" stroke="#9a32cd" stroke-dasharray="5,2" d="M781.73,-738.18C825.68,-740.69 885.19,-736.25 922.5,-701.62 951.28,-674.92 963.9,-546.65 966.97,-509.64"/>
<polygon fill="#9a32cd" stroke="#9a32cd" points="782.08,-734.7 771.85,-737.47 781.58,-741.68 782.08,-734.7"/>
</a>
</g>
<text text-anchor="middle" x="858.38" y="-740.38" font-family="Helvetica,sans-Serif" font-size="10.00" fill="grey"> mKernelQueue</text>
</g>
<!-- Node6 -->
<g id="Node000006" class="node">
<title>Node6</title>
<g id="a_Node000006"><a xlink:title=" ">
<polygon fill="white" stroke="#666666" points="468.88,-742.25 389.12,-742.25 389.12,-723 468.88,-723 468.88,-742.25"/>
<text text-anchor="middle" x="429" y="-728.75" font-family="Helvetica,sans-Serif" font-size="10.00">struct kevent *</text>
</a>
</g>
</g>
<!-- Node6&#45;&gt;Node5 -->
<g id="edge6_Node000005_Node000006" class="edge">
<title>Node6&#45;&gt;Node5</title>
<g id="a_edge6_Node000005_Node000006"><a xlink:title=" ">
<path fill="none" stroke="#9a32cd" stroke-dasharray="5,2" d="M480.54,-732.28C536.07,-731.9 624.45,-731.3 677.78,-730.93"/>
<polygon fill="#9a32cd" stroke="#9a32cd" points="480.7,-728.78 470.72,-732.35 480.75,-735.78 480.7,-728.78"/>
</a>
</g>
<text text-anchor="middle" x="601.62" y="-733.38" font-family="Helvetica,sans-Serif" font-size="10.00" fill="grey"> mEventList</text>
</g>
<!-- Node7 -->
<g id="Node000007" class="node">
<title>Node7</title>
<g id="a_Node000007"><a xlink:title=" ">
<polygon fill="white" stroke="#666666" points="470.75,-779.25 387.25,-779.25 387.25,-760 470.75,-760 470.75,-779.25"/>
<text text-anchor="middle" x="429" y="-765.75" font-family="Helvetica,sans-Serif" font-size="10.00">struct timespec</text>
</a>
</g>
</g>
<!-- Node7&#45;&gt;Node5 -->
<g id="edge7_Node000005_Node000007" class="edge">
<title>Node7&#45;&gt;Node5</title>
<g id="a_edge7_Node000005_Node000007"><a xlink:title=" ">
<path fill="none" stroke="#9a32cd" stroke-dasharray="5,2" d="M482.39,-766.09C527.9,-762.59 595.46,-756.32 653.75,-746.62 663.37,-745.03 673.64,-742.89 683.25,-740.7"/>
<polygon fill="#9a32cd" stroke="#9a32cd" points="482.25,-762.6 472.54,-766.83 482.78,-769.58 482.25,-762.6"/>
</a>
</g>
<text text-anchor="middle" x="601.62" y="-761.38" font-family="Helvetica,sans-Serif" font-size="10.00" fill="grey"> mTimeout</text>
</g>
<!-- Node8&#45;&gt;Node1 -->
<g id="edge8_Node000001_Node000008" class="edge">
<title>Node8&#45;&gt;Node1</title>
<g id="a_edge8_Node000001_Node000008"><a xlink:title=" ">
<path fill="none" stroke="#9a32cd" stroke-dasharray="5,2" d="M772,-517.37C821.89,-512.84 899.07,-505.85 940.02,-502.14"/>
<polygon fill="#9a32cd" stroke="#9a32cd" points="771.71,-513.88 762.07,-518.27 772.34,-520.85 771.71,-513.88"/>
</a>
</g>
<text text-anchor="middle" x="858.38" y="-516.38" font-family="Helvetica,sans-Serif" font-size="10.00" fill="grey"> mNetwork</text>
</g>
<!-- Node9 -->
<g id="Node000009" class="node">
<title>Node9</title>
<g id="a_Node000009"><a xlink:title=" ">
<polygon fill="white" stroke="#666666" points="109.75,-450.25 69.75,-450.25 69.75,-431 109.75,-431 109.75,-450.25"/>
<text text-anchor="middle" x="89.75" y="-436.75" font-family="Helvetica,sans-Serif" font-size="10.00">string</text>
</a>
</g>
</g>
<!-- Node9&#45;&gt;Node1 -->
<g id="edge12_Node000001_Node000009" class="edge">
<title>Node9&#45;&gt;Node1</title>
<g id="a_edge12_Node000001_Node000009"><a xlink:title=" ">
<path fill="none" stroke="#9a32cd" stroke-dasharray="5,2" d="M113.06,-457.36C133.9,-472.27 166.39,-493.66 197.5,-506.62 251.93,-529.3 267.97,-530.43 326.5,-537.62 524.9,-562 576.5,-548.13 776.25,-540.62 841.39,-538.18 860.84,-550.76 922.5,-529.62 935.16,-525.28 947.7,-516.53 956.35,-509.59"/>
<polygon fill="#9a32cd" stroke="#9a32cd" points="115.18,-454.58 105.04,-451.52 111.06,-460.24 115.18,-454.58"/>
</a>
</g>
<text text-anchor="middle" x="601.62" y="-563.62" font-family="Helvetica,sans-Serif" font-size="10.00" fill="grey"> mLogBuffer</text>
<text text-anchor="middle" x="601.62" y="-552.38" font-family="Helvetica,sans-Serif" font-size="10.00" fill="grey">mLogFileName</text>
</g>
<!-- Node9&#45;&gt;Node8 -->
<g id="edge10_Node000008_Node000009" class="edge">
<title>Node9&#45;&gt;Node8</title>
<g id="a_edge10_Node000008_Node000009"><a xlink:title=" ">
<path fill="none" stroke="#9a32cd" stroke-dasharray="5,2" d="M120.51,-451.88C164.71,-468.04 250.67,-497.34 326.5,-510.62 424.29,-527.76 450.26,-520.73 549.5,-523.62 597.23,-525.01 652.36,-523.92 687.44,-522.88"/>
<polygon fill="#9a32cd" stroke="#9a32cd" points="121.96,-448.69 111.37,-448.5 119.53,-455.25 121.96,-448.69"/>
</a>
</g>
<text text-anchor="middle" x="429" y="-524.38" font-family="Helvetica,sans-Serif" font-size="10.00" fill="grey"> mServerIPString</text>
</g>
<!-- Node9&#45;&gt;Node12 -->
<g id="edge22_Node000012_Node000009" class="edge">
<title>Node9&#45;&gt;Node12</title>
<g id="a_edge22_Node000012_Node000009"><a xlink:title=" ">
<path fill="none" stroke="#9a32cd" stroke-dasharray="5,2" d="M120.28,-426.62C164.15,-406.53 249.63,-370.16 326.5,-353.62 469.04,-322.97 508.67,-345.14 653.75,-330.62 659.54,-330.05 665.59,-329.37 671.61,-328.65"/>
<polygon fill="#9a32cd" stroke="#9a32cd" points="119.03,-423.34 111.43,-430.71 121.97,-429.69 119.03,-423.34"/>
</a>
</g>
<text text-anchor="middle" x="429" y="-389.12" font-family="Helvetica,sans-Serif" font-size="10.00" fill="grey"> mFooterColor</text>
<text text-anchor="middle" x="429" y="-377.88" font-family="Helvetica,sans-Serif" font-size="10.00" fill="grey">mHeaderColor</text>
<text text-anchor="middle" x="429" y="-366.62" font-family="Helvetica,sans-Serif" font-size="10.00" fill="grey">mPromptBuffer</text>
<text text-anchor="middle" x="429" y="-355.38" font-family="Helvetica,sans-Serif" font-size="10.00" fill="grey">mScreenBuffer</text>
</g>
<!-- Node14 -->
<g id="Node000014" class="node">
<title>Node14</title>
<g id="a_Node000014"><a xlink:href="classgdf_1_1_display_buffer.html" target="_top" xlink:title="디스플레이에 표시되어야하는 텍스트를 저장하는 클래스">
<polygon fill="white" stroke="#666666" points="476.38,-234.25 381.62,-234.25 381.62,-215 476.38,-215 476.38,-234.25"/>
<text text-anchor="middle" x="429" y="-220.75" font-family="Helvetica,sans-Serif" font-size="10.00">gdf::DisplayBuffer</text>
</a>
</g>
</g>
<!-- Node9&#45;&gt;Node14 -->
<g id="edge18_Node000014_Node000009" class="edge">
<title>Node9&#45;&gt;Node14</title>
<g id="a_edge18_Node000014_Node000009"><a xlink:title=" ">
<path fill="none" stroke="#9a32cd" stroke-dasharray="5,2" d="M102.47,-421.38C120.2,-393.51 156.19,-341.61 197.5,-308.12 247.45,-267.63 265.52,-263.01 326.5,-242.62 343.98,-236.78 363.83,-232.72 381.3,-229.96"/>
<polygon fill="#9a32cd" stroke="#9a32cd" points="99.72,-419.17 97.39,-429.51 105.66,-422.88 99.72,-419.17"/>
</a>
</g>
<text text-anchor="middle" x="253" y="-320.62" font-family="Helvetica,sans-Serif" font-size="10.00" fill="grey"> mFooter</text>
<text text-anchor="middle" x="253" y="-309.38" font-family="Helvetica,sans-Serif" font-size="10.00" fill="grey">mHeader</text>
</g>
<!-- Node10 -->
<g id="Node000010" class="node">
<title>Node10</title>
<g id="a_Node000010"><a xlink:title=" ">
<polygon fill="white" stroke="#666666" points="531.5,-501.25 326.5,-501.25 326.5,-482 531.5,-482 531.5,-501.25"/>
<text text-anchor="middle" x="429" y="-487.75" font-family="Helvetica,sans-Serif" font-size="10.00">map&lt; int32, struct gdf::Network::Session &gt;</text>
</a>
</g>
</g>
<!-- Node10&#45;&gt;Node8 -->
<g id="edge11_Node000008_Node000010" class="edge">
<title>Node10&#45;&gt;Node8</title>
<g id="a_edge11_Node000008_Node000010"><a xlink:title=" ">
<path fill="none" stroke="#9a32cd" stroke-dasharray="5,2" d="M543.1,-501.22C578.55,-504.47 617.81,-508.31 653.75,-512.38 664.72,-513.62 676.64,-515.14 687.45,-516.6"/>
<polygon fill="#9a32cd" stroke="#9a32cd" points="543.51,-497.74 533.23,-500.32 542.88,-504.71 543.51,-497.74"/>
</a>
</g>
<text text-anchor="middle" x="601.62" y="-513.38" font-family="Helvetica,sans-Serif" font-size="10.00" fill="grey"> mSessions</text>
</g>
<!-- Node11 -->
<g id="Node000011" class="node">
<title>Node11</title>
<g id="a_Node000011"><a xlink:title=" ">
<polygon fill="white" stroke="#666666" points="138.25,-138.25 41.25,-138.25 41.25,-119 138.25,-119 138.25,-138.25"/>
<text text-anchor="middle" x="89.75" y="-124.75" font-family="Helvetica,sans-Serif" font-size="10.00">unsigned long long</text>
</a>
</g>
</g>
<!-- Node11&#45;&gt;Node1 -->
<g id="edge13_Node000001_Node000011" class="edge">
<title>Node11&#45;&gt;Node1</title>
<g id="a_edge13_Node000001_Node000011"><a xlink:title=" ">
<path fill="none" stroke="#9a32cd" stroke-dasharray="5,2" d="M149.74,-117.31C255.92,-99.84 483.93,-75.66 653.75,-151.38 788.12,-211.29 837.53,-224.52 922.5,-344.62 955.85,-391.77 964.83,-463.41 967.06,-489.59"/>
<polygon fill="#9a32cd" stroke="#9a32cd" points="149.4,-113.82 140.12,-118.94 150.57,-120.72 149.4,-113.82"/>
</a>
</g>
<text text-anchor="middle" x="601.62" y="-153.38" font-family="Helvetica,sans-Serif" font-size="10.00" fill="grey"> mLogBufferIndex</text>
</g>
<!-- Node11&#45;&gt;Node12 -->
<g id="edge15_Node000012_Node000011" class="edge">
<title>Node11&#45;&gt;Node12</title>
<g id="a_edge15_Node000012_Node000011"><a xlink:title=" ">
<path fill="none" stroke="#9a32cd" stroke-dasharray="5,2" d="M149.82,-125.39C235.65,-122.35 399.05,-122.91 531.5,-160.62 590.48,-177.42 607.5,-184.35 653.75,-224.62 683.86,-250.85 707.93,-292.67 717.95,-311.66"/>
<polygon fill="#9a32cd" stroke="#9a32cd" points="149.86,-121.88 140,-125.77 150.13,-128.88 149.86,-121.88"/>
</a>
</g>
<text text-anchor="middle" x="429" y="-196.12" font-family="Helvetica,sans-Serif" font-size="10.00" fill="grey"> mConsoleHeight</text>
<text text-anchor="middle" x="429" y="-184.88" font-family="Helvetica,sans-Serif" font-size="10.00" fill="grey">mConsoleWidth</text>
<text text-anchor="middle" x="429" y="-173.62" font-family="Helvetica,sans-Serif" font-size="10.00" fill="grey">mScreenBufferIndex</text>
<text text-anchor="middle" x="429" y="-162.38" font-family="Helvetica,sans-Serif" font-size="10.00" fill="grey">sStaticInstanceCount</text>
</g>
<!-- Node11&#45;&gt;Node14 -->
<g id="edge19_Node000014_Node000011" class="edge">
<title>Node11&#45;&gt;Node14</title>
<g id="a_edge19_Node000014_Node000011"><a xlink:title=" ">
<path fill="none" stroke="#9a32cd" stroke-dasharray="5,2" d="M128.91,-142.56C149.18,-149.79 174.57,-158.55 197.5,-165.62 254.27,-183.14 268.92,-186.01 326.5,-200.62 345.28,-205.39 366.09,-210.37 383.96,-214.54"/>
<polygon fill="#9a32cd" stroke="#9a32cd" points="130.25,-139.33 119.65,-139.24 127.88,-145.91 130.25,-139.33"/>
</a>
</g>
<text text-anchor="middle" x="253" y="-198.38" font-family="Helvetica,sans-Serif" font-size="10.00" fill="grey"> mContentBufferCapacity</text>
</g>
<!-- Node18 -->
<g id="Node000018" class="node">
<title>Node18</title>
<g id="a_Node000018"><a xlink:href="classgrc_1_1_earth.html" target="_top" xlink:title="지구의 애니메이션을 출력하는 클래스이다.">
<polygon fill="white" stroke="#666666" points="458.38,-66.25 399.62,-66.25 399.62,-47 458.38,-47 458.38,-66.25"/>
<text text-anchor="middle" x="429" y="-52.75" font-family="Helvetica,sans-Serif" font-size="10.00">grc::Earth</text>
</a>
</g>
</g>
<!-- Node11&#45;&gt;Node18 -->
<g id="edge27_Node000018_Node000011" class="edge">
<title>Node11&#45;&gt;Node18</title>
<g id="a_edge27_Node000018_Node000011"><a xlink:title=" ">
<path fill="none" stroke="#9a32cd" stroke-dasharray="5,2" d="M118.35,-113.17C139.38,-102.13 169.41,-87.96 197.5,-80.38 268.38,-61.25 355.35,-57.32 399.44,-56.64"/>
<polygon fill="#9a32cd" stroke="#9a32cd" points="116.72,-110.07 109.56,-117.88 120.03,-116.24 116.72,-110.07"/>
</a>
</g>
<text text-anchor="middle" x="253" y="-82.38" font-family="Helvetica,sans-Serif" font-size="10.00" fill="grey"> mFramesIndex</text>
</g>
<!-- Node12&#45;&gt;Node1 -->
<g id="edge14_Node000001_Node000012" class="edge">
<title>Node12&#45;&gt;Node1</title>
<g id="a_edge14_Node000001_Node000012"><a xlink:title=" ">
<path fill="none" stroke="#9a32cd" stroke-dasharray="5,2" d="M765,-335.71C807.83,-352.32 875.91,-383.29 922.5,-426.88 942.27,-445.37 956.8,-474.34 963.55,-489.54"/>
<polygon fill="#9a32cd" stroke="#9a32cd" points="766.42,-332.5 755.83,-332.23 763.94,-339.05 766.42,-332.5"/>
</a>
</g>
<text text-anchor="middle" x="858.38" y="-450.88" font-family="Helvetica,sans-Serif" font-size="10.00" fill="grey"> mActivatedWindow</text>
<text text-anchor="middle" x="858.38" y="-439.62" font-family="Helvetica,sans-Serif" font-size="10.00" fill="grey">mLogMonitor</text>
<text text-anchor="middle" x="858.38" y="-428.38" font-family="Helvetica,sans-Serif" font-size="10.00" fill="grey">mServerMonitor</text>
</g>
<!-- Node13 -->
<g id="Node000013" class="node">
<title>Node13</title>
<g id="a_Node000013"><a xlink:title=" ">
<polygon fill="white" stroke="#666666" points="480.5,-308.25 377.5,-308.25 377.5,-289 480.5,-289 480.5,-308.25"/>
<text text-anchor="middle" x="429" y="-294.75" font-family="Helvetica,sans-Serif" font-size="10.00">static struct termios</text>
</a>
</g>
</g>
<!-- Node13&#45;&gt;Node12 -->
<g id="edge16_Node000012_Node000013" class="edge">
<title>Node13&#45;&gt;Node12</title>
<g id="a_edge16_Node000012_Node000013"><a xlink:title=" ">
<path fill="none" stroke="#9a32cd" stroke-dasharray="5,2" d="M492.06,-303.5C545.39,-307.68 621.4,-313.65 671.44,-317.58"/>
<polygon fill="#9a32cd" stroke="#9a32cd" points="492.45,-300.02 482.21,-302.72 491.91,-307 492.45,-300.02"/>
</a>
</g>
<text text-anchor="middle" x="601.62" y="-317.38" font-family="Helvetica,sans-Serif" font-size="10.00" fill="grey"> sStaticOldTerminal</text>
</g>
<!-- Node14&#45;&gt;Node12 -->
<g id="edge17_Node000012_Node000014" class="edge">
<title>Node14&#45;&gt;Node12</title>
<g id="a_edge17_Node000012_Node000014"><a xlink:title=" ">
<path fill="none" stroke="#9a32cd" stroke-dasharray="5,2" d="M487.96,-223.37C534.85,-224.53 601.43,-231.21 653.75,-256.38 680.84,-269.41 704.41,-296.89 715.78,-311.69"/>
<polygon fill="#9a32cd" stroke="#9a32cd" points="488.06,-219.87 478,-223.21 487.95,-226.87 488.06,-219.87"/>
</a>
</g>
<text text-anchor="middle" x="601.62" y="-258.38" font-family="Helvetica,sans-Serif" font-size="10.00" fill="grey"> mDisplay</text>
</g>
<!-- Node15 -->
<g id="Node000015" class="node">
<title>Node15</title>
<g id="a_Node000015"><a xlink:title=" ">
<polygon fill="white" stroke="#666666" points="179.5,-234.25 0,-234.25 0,-215 179.5,-215 179.5,-234.25"/>
<text text-anchor="middle" x="89.75" y="-220.75" font-family="Helvetica,sans-Serif" font-size="10.00">deque&lt; gdf::DisplayBuffer::Content &gt;</text>
</a>
</g>
</g>
<!-- Node15&#45;&gt;Node14 -->
<g id="edge20_Node000014_Node000015" class="edge">
<title>Node15&#45;&gt;Node14</title>
<g id="a_edge20_Node000014_Node000015"><a xlink:title=" ">
<path fill="none" stroke="#9a32cd" stroke-dasharray="5,2" d="M190.99,-224.62C254.13,-224.62 332.65,-224.62 381.56,-224.62"/>
<polygon fill="#9a32cd" stroke="#9a32cd" points="191.31,-221.13 181.31,-224.63 191.31,-228.13 191.31,-221.13"/>
</a>
</g>
<text text-anchor="middle" x="253" y="-226.38" font-family="Helvetica,sans-Serif" font-size="10.00" fill="grey"> mContentBuffer</text>
</g>
<!-- Node16 -->
<g id="Node000016" class="node">
<title>Node16</title>
<g id="a_Node000016"><a xlink:title=" ">
<polygon fill="white" stroke="#666666" points="526.62,-427.25 331.38,-427.25 331.38,-408 526.62,-408 526.62,-427.25"/>
<text text-anchor="middle" x="429" y="-413.75" font-family="Helvetica,sans-Serif" font-size="10.00">map&lt; DisplayBuffer::eColor, std::string &gt;</text>
</a>
</g>
</g>
<!-- Node16&#45;&gt;Node12 -->
<g id="edge21_Node000012_Node000016" class="edge">
<title>Node16&#45;&gt;Node12</title>
<g id="a_edge21_Node000012_Node000016"><a xlink:title=" ">
<path fill="none" stroke="#9a32cd" stroke-dasharray="5,2" d="M499.7,-404.72C510.56,-401.69 521.5,-398.03 531.5,-393.62 540.36,-389.72 540.61,-385.2 549.5,-381.38 593.06,-362.64 609.25,-375.01 653.75,-358.62 673.07,-351.51 693.69,-339.92 707.36,-331.6"/>
<polygon fill="#9a32cd" stroke="#9a32cd" points="499.15,-401.24 490.36,-407.15 500.92,-408.02 499.15,-401.24"/>
</a>
</g>
<text text-anchor="middle" x="601.62" y="-382.38" font-family="Helvetica,sans-Serif" font-size="10.00" fill="grey"> mANSIColors</text>
</g>
<!-- Node17 -->
<g id="Node000017" class="node">
<title>Node17</title>
<g id="a_Node000017"><a xlink:title=" ">
<polygon fill="white" stroke="#666666" points="480.88,-271.25 377.12,-271.25 377.12,-252 480.88,-252 480.88,-271.25"/>
<text text-anchor="middle" x="429" y="-257.75" font-family="Helvetica,sans-Serif" font-size="10.00">deque&lt; std::string &gt;</text>
</a>
</g>
</g>
<!-- Node17&#45;&gt;Node12 -->
<g id="edge24_Node000012_Node000017" class="edge">
<title>Node17&#45;&gt;Node12</title>
<g id="a_edge24_Node000012_Node000017"><a xlink:title=" ">
<path fill="none" stroke="#9a32cd" stroke-dasharray="5,2" d="M492.42,-265.78C537.79,-269.86 600.36,-277.71 653.75,-292.38 670.99,-297.11 689.61,-305.16 703.2,-311.61"/>
<polygon fill="#9a32cd" stroke="#9a32cd" points="492.74,-262.3 482.48,-264.93 492.14,-269.27 492.74,-262.3"/>
</a>
</g>
<text text-anchor="middle" x="601.62" y="-293.38" font-family="Helvetica,sans-Serif" font-size="10.00" fill="grey"> mPromptQueue</text>
</g>
<!-- Node18&#45;&gt;Node1 -->
<g id="edge25_Node000001_Node000018" class="edge">
<title>Node18&#45;&gt;Node1</title>
<g id="a_edge25_Node000001_Node000018"><a xlink:title=" ">
<path fill="none" stroke="#9a32cd" stroke-dasharray="5,2" d="M470.24,-56.58C582.03,-56.86 890.28,-60.47 922.5,-91.62 952.09,-120.23 965.12,-429.42 967.39,-489.53"/>
<polygon fill="#9a32cd" stroke="#9a32cd" points="470.35,-53.08 460.34,-56.57 470.33,-60.08 470.35,-53.08"/>
</a>
</g>
<text text-anchor="middle" x="724" y="-67.38" font-family="Helvetica,sans-Serif" font-size="10.00" fill="grey"> mEarthAnimation</text>
</g>
<!-- Node19 -->
<g id="Node000019" class="node">
<title>Node19</title>
<g id="a_Node000019"><a xlink:href="class_i_animation.html" target="_top" xlink:title=" ">
<polygon fill="white" stroke="#666666" points="121,-56.25 58.5,-56.25 58.5,-37 121,-37 121,-56.25"/>
<text text-anchor="middle" x="89.75" y="-42.75" font-family="Helvetica,sans-Serif" font-size="10.00">IAnimation</text>
</a>
</g>
</g>
<!-- Node19&#45;&gt;Node18 -->
<g id="edge26_Node000018_Node000019" class="edge">
<title>Node19&#45;&gt;Node18</title>
<g id="a_edge26_Node000018_Node000019"><a xlink:title=" ">
<path fill="none" stroke="#63b8ff" d="M132.63,-47.87C202.13,-49.93 339.56,-54 399.23,-55.77"/>
<polygon fill="#63b8ff" stroke="#63b8ff" points="132.89,-44.37 122.79,-47.57 132.68,-51.37 132.89,-44.37"/>
</a>
</g>
</g>
<!-- Node20 -->
<g id="Node000020" class="node">
<title>Node20</title>
<g id="a_Node000020"><a xlink:title=" ">
<polygon fill="white" stroke="#666666" points="142,-19.25 37.5,-19.25 37.5,0 142,0 142,-19.25"/>
<text text-anchor="middle" x="89.75" y="-5.75" font-family="Helvetica,sans-Serif" font-size="10.00">vector&lt; std::string &gt;</text>
</a>
</g>
</g>
<!-- Node20&#45;&gt;Node18 -->
<g id="edge28_Node000018_Node000020" class="edge">
<title>Node20&#45;&gt;Node18</title>
<g id="a_edge28_Node000018_Node000020"><a xlink:title=" ">
<path fill="none" stroke="#9a32cd" stroke-dasharray="5,2" d="M153.62,-16.08C197.18,-20.79 256.47,-27.68 308.5,-35.38 339.77,-40 375.42,-46.5 399.58,-51.09"/>
<polygon fill="#9a32cd" stroke="#9a32cd" points="154.16,-12.62 143.84,-15.03 153.41,-19.58 154.16,-12.62"/>
</a>
</g>
<text text-anchor="middle" x="253" y="-37.38" font-family="Helvetica,sans-Serif" font-size="10.00" fill="grey"> mFrames</text>
</g>
<!-- Node21 -->
<g id="Node000021" class="node">
<title>Node21</title>
<g id="a_Node000021"><a xlink:title=" ">
<polygon fill="white" stroke="#666666" points="761.62,-30.25 686.38,-30.25 686.38,-11 761.62,-11 761.62,-30.25"/>
<text text-anchor="middle" x="724" y="-16.75" font-family="Helvetica,sans-Serif" font-size="10.00">struct timeval</text>
</a>
</g>
</g>
<!-- Node21&#45;&gt;Node1 -->
<g id="edge29_Node000001_Node000021" class="edge">
<title>Node21&#45;&gt;Node1</title>
<g id="a_edge29_Node000001_Node000021"><a xlink:title=" ">
<path fill="none" stroke="#9a32cd" stroke-dasharray="5,2" d="M773.38,-10.35C818.45,-3.88 884.27,-2.91 922.5,-41.38 955.25,-74.34 965.84,-425.41 967.5,-489.58"/>
<polygon fill="#9a32cd" stroke="#9a32cd" points="772.94,-6.87 763.61,-11.9 774.04,-13.79 772.94,-6.87"/>
</a>
</g>
<text text-anchor="middle" x="858.38" y="-43.38" font-family="Helvetica,sans-Serif" font-size="10.00" fill="grey"> mEarthAnimationLastUpdate</text>
</g>
</g>
</svg>
