<?xml version="1.0" encoding="UTF-8" standalone="no"?>
<!DOCTYPE svg PUBLIC "-//W3C//DTD SVG 1.1//EN"
 "http://www.w3.org/Graphics/SVG/1.1/DTD/svg11.dtd">
<!-- Generated by graphviz version 10.0.1 (20240210.2158)
 -->
<!-- Title: gdf::Network Pages: 1 -->
<svg width="360pt" height="94pt"
 viewBox="0.00 0.00 359.90 93.75" xmlns="http://www.w3.org/2000/svg" xmlns:xlink="http://www.w3.org/1999/xlink">
<g id="graph0" class="graph" transform="scale(1 1) rotate(0) translate(4 89.75)">
<title>gdf::Network</title>
<!-- Node1 -->
<g id="Node000001" class="node">
<title>Node1</title>
<g id="a_Node000001"><a xlink:title=" ">
<polygon fill="#999999" stroke="#666666" points="144.53,-19.25 72.28,-19.25 72.28,0 144.53,0 144.53,-19.25"/>
<text text-anchor="middle" x="108.4" y="-5.75" font-family="Helvetica,sans-Serif" font-size="10.00">gdf::Network</text>
</a>
</g>
</g>
<!-- Node2 -->
<g id="Node000002" class="node">
<title>Node2</title>
<g id="a_Node000002"><a xlink:title=" ">
<polygon fill="white" stroke="#666666" points="28.8,-85.75 0,-85.75 0,-66.5 28.8,-66.5 28.8,-85.75"/>
<text text-anchor="middle" x="14.4" y="-72.25" font-family="Helvetica,sans-Serif" font-size="10.00">int</text>
</a>
</g>
</g>
<!-- Node2&#45;&gt;Node1 -->
<g id="edge1_Node000001_Node000002" class="edge">
<title>Node2&#45;&gt;Node1</title>
<g id="a_edge1_Node000001_Node000002"><a xlink:title=" ">
<path fill="none" stroke="#9a32cd" stroke-dasharray="5,2" d="M20.99,-55.74C24.04,-49.14 28.27,-42.18 33.9,-37.25 44.54,-27.93 58.68,-21.8 71.78,-17.8"/>
<polygon fill="#9a32cd" stroke="#9a32cd" points="17.87,-54.11 17.47,-64.7 24.38,-56.67 17.87,-54.11"/>
</a>
</g>
<text text-anchor="middle" x="69.65" y="-39" font-family="Helvetica,sans-Serif" font-size="10.00" fill="grey"> mServerSocket</text>
</g>
<!-- Node3 -->
<g id="Node000003" class="node">
<title>Node3</title>
<g id="a_Node000003"><a xlink:title=" ">
<polygon fill="white" stroke="#666666" points="128.4,-85.75 88.4,-85.75 88.4,-66.5 128.4,-66.5 128.4,-85.75"/>
<text text-anchor="middle" x="108.4" y="-72.25" font-family="Helvetica,sans-Serif" font-size="10.00">string</text>
</a>
</g>
</g>
<!-- Node3&#45;&gt;Node1 -->
<g id="edge2_Node000001_Node000003" class="edge">
<title>Node3&#45;&gt;Node1</title>
<g id="a_edge2_Node000001_Node000003"><a xlink:title=" ">
<path fill="none" stroke="#9a32cd" stroke-dasharray="5,2" d="M108.4,-54.65C108.4,-42.82 108.4,-28.54 108.4,-19.52"/>
<polygon fill="#9a32cd" stroke="#9a32cd" points="104.9,-54.64 108.4,-64.64 111.9,-54.64 104.9,-54.64"/>
</a>
</g>
<text text-anchor="middle" x="145.9" y="-39" font-family="Helvetica,sans-Serif" font-size="10.00" fill="grey"> mServerIPString</text>
</g>
<!-- Node4 -->
<g id="Node000004" class="node">
<title>Node4</title>
<g id="a_Node000004"><a xlink:title=" ">
<polygon fill="white" stroke="#666666" points="351.9,-85.75 146.9,-85.75 146.9,-66.5 351.9,-66.5 351.9,-85.75"/>
<text text-anchor="middle" x="249.4" y="-72.25" font-family="Helvetica,sans-Serif" font-size="10.00">map&lt; int32, struct gdf::Network::Session &gt;</text>
</a>
</g>
</g>
<!-- Node4&#45;&gt;Node1 -->
<g id="edge3_Node000001_Node000004" class="edge">
<title>Node4&#45;&gt;Node1</title>
<g id="a_edge3_Node000001_Node000004"><a xlink:title=" ">
<path fill="none" stroke="#9a32cd" stroke-dasharray="5,2" d="M227.3,-59.96C215.75,-52.47 201.19,-43.69 187.4,-37.25 172.45,-30.27 155.15,-24.23 140.55,-19.67"/>
<polygon fill="#9a32cd" stroke="#9a32cd" points="225.04,-62.66 235.31,-65.28 228.91,-56.83 225.04,-62.66"/>
</a>
</g>
<text text-anchor="middle" x="234.28" y="-39" font-family="Helvetica,sans-Serif" font-size="10.00" fill="grey"> mSessions</text>
</g>
</g>
</svg>
