<?xml version="1.0" encoding="UTF-8" standalone="no"?>
<!DOCTYPE svg PUBLIC "-//W3C//DTD SVG 1.1//EN"
 "http://www.w3.org/Graphics/SVG/1.1/DTD/svg11.dtd">
<!-- Generated by graphviz version 10.0.1 (20240210.2158)
 -->
<!-- Title: grc::Channel Pages: 1 -->
<svg width="403pt" height="128pt"
 viewBox="0.00 0.00 403.25 127.50" xmlns="http://www.w3.org/2000/svg" xmlns:xlink="http://www.w3.org/1999/xlink">

<svg id="main" version="1.1" xmlns="http://www.w3.org/2000/svg" xmlns:xlink="http://www.w3.org/1999/xlink" xml:space="preserve" onload="init(evt)">
<style type="text/css"><![CDATA[
.node, .edge {opacity: 0.7;}
.node.selected, .edge.selected {opacity: 1;}
.edge:hover path { stroke: red; }
.edge:hover polygon { stroke: red; fill: red; }
]]></style>
<script type="application/ecmascript" xlink:href="svg.min.js"/>
<svg id="graph" class="graph">
<g id="graph0" class="graph" transform="scale(1 1) rotate(0) translate(4 123.5)">
<title>grc::Channel</title>
<!-- Node1 -->
<g id="Node000001" class="node">
<title>Node1</title>
<g id="a_Node000001"><a xlink:title="IRC에서 생성되는 Channel 객체를 정의하는 클래스.">
<polygon fill="#999999" stroke="#666666" points="164.75,-19.25 93.25,-19.25 93.25,0 164.75,0 164.75,-19.25"/>
<text text-anchor="middle" x="129" y="-5.75" font-family="Helvetica,sans-Serif" font-size="10.00">grc::Channel</text>
</a>
</g>
</g>
<!-- Node2 -->
<g id="Node000002" class="node">
<title>Node2</title>
<g id="a_Node000002"><a xlink:title=" ">
<polygon fill="white" stroke="#666666" points="40,-119.5 0,-119.5 0,-100.25 40,-100.25 40,-119.5"/>
<text text-anchor="middle" x="20" y="-106" font-family="Helvetica,sans-Serif" font-size="10.00">string</text>
</a>
</g>
</g>
<!-- Node2&#45;&gt;Node1 -->
<g id="edge1_Node000001_Node000002" class="edge">
<title>Node2&#45;&gt;Node1</title>
<g id="a_edge1_Node000001_Node000002"><a xlink:title=" ">
<path fill="none" stroke="#9a32cd" stroke-dasharray="5,2" d="M17.44,-88.92C16.56,-73.02 18.12,-51.19 30.5,-37.25 46.03,-19.77 71.73,-13.23 92.99,-11.01"/>
<polygon fill="#9a32cd" stroke="#9a32cd" points="13.93,-89.01 18.36,-98.63 20.9,-88.35 13.93,-89.01"/>
</a>
</g>
<text text-anchor="middle" x="48.25" y="-67.12" font-family="Helvetica,sans-Serif" font-size="10.00" fill="grey"> mKey</text>
<text text-anchor="middle" x="48.25" y="-55.88" font-family="Helvetica,sans-Serif" font-size="10.00" fill="grey">mName</text>
<text text-anchor="middle" x="48.25" y="-44.62" font-family="Helvetica,sans-Serif" font-size="10.00" fill="grey">mTopic</text>
</g>
<!-- Node3 -->
<g id="Node000003" class="node">
<title>Node3</title>
<g id="a_Node000003"><a xlink:title=" ">
<polygon fill="white" stroke="#666666" points="90.4,-119.5 61.6,-119.5 61.6,-100.25 90.4,-100.25 90.4,-119.5"/>
<text text-anchor="middle" x="76" y="-106" font-family="Helvetica,sans-Serif" font-size="10.00">int</text>
</a>
</g>
</g>
<!-- Node3&#45;&gt;Node1 -->
<g id="edge2_Node000001_Node000003" class="edge">
<title>Node3&#45;&gt;Node1</title>
<g id="a_edge2_Node000001_Node000003"><a xlink:title=" ">
<path fill="none" stroke="#9a32cd" stroke-dasharray="5,2" d="M70.96,-88.9C68.27,-73.61 67.23,-52.61 76.75,-37.25 81.63,-29.38 89.65,-23.74 97.95,-19.74"/>
<polygon fill="#9a32cd" stroke="#9a32cd" points="67.54,-89.64 73.08,-98.67 74.38,-88.15 67.54,-89.64"/>
</a>
</g>
<text text-anchor="middle" x="114.62" y="-55.88" font-family="Helvetica,sans-Serif" font-size="10.00" fill="grey"> mMaxUserCount</text>
</g>
<!-- Node4 -->
<g id="Node000004" class="node">
<title>Node4</title>
<g id="a_Node000004"><a xlink:title=" ">
<polygon fill="white" stroke="#666666" points="251.38,-119.5 108.62,-119.5 108.62,-100.25 251.38,-100.25 251.38,-119.5"/>
<text text-anchor="middle" x="180" y="-106" font-family="Helvetica,sans-Serif" font-size="10.00">map&lt; std::string, grc::User &gt;</text>
</a>
</g>
</g>
<!-- Node4&#45;&gt;Node1 -->
<g id="edge3_Node000001_Node000004" class="edge">
<title>Node4&#45;&gt;Node1</title>
<g id="a_edge3_Node000001_Node000004"><a xlink:title=" ">
<path fill="none" stroke="#9a32cd" stroke-dasharray="5,2" d="M176.78,-88.76C173.69,-73.7 167.98,-53.06 158,-37.25 153.7,-30.43 147.2,-24.24 141.44,-19.55"/>
<polygon fill="#9a32cd" stroke="#9a32cd" points="173.29,-89.16 178.52,-98.38 180.18,-87.92 173.29,-89.16"/>
</a>
</g>
<text text-anchor="middle" x="208.38" y="-67.12" font-family="Helvetica,sans-Serif" font-size="10.00" fill="grey"> mInvitedUsers</text>
<text text-anchor="middle" x="208.38" y="-55.88" font-family="Helvetica,sans-Serif" font-size="10.00" fill="grey">mOperators</text>
<text text-anchor="middle" x="208.38" y="-44.62" font-family="Helvetica,sans-Serif" font-size="10.00" fill="grey">mUsers</text>
</g>
<!-- Node5 -->
<g id="Node000005" class="node">
<title>Node5</title>
<g id="a_Node000005"><a xlink:title=" ">
<polygon fill="white" stroke="#666666" points="303,-119.5 269,-119.5 269,-100.25 303,-100.25 303,-119.5"/>
<text text-anchor="middle" x="286" y="-106" font-family="Helvetica,sans-Serif" font-size="10.00">bool</text>
</a>
</g>
</g>
<!-- Node5&#45;&gt;Node1 -->
<g id="edge4_Node000001_Node000005" class="edge">
<title>Node5&#45;&gt;Node1</title>
<g id="a_edge4_Node000001_Node000005"><a xlink:title=" ">
<path fill="none" stroke="#9a32cd" stroke-dasharray="5,2" d="M280.05,-89.21C274.08,-72.83 263.25,-50.16 246,-37.25 222.74,-19.83 190.08,-13.49 165.18,-11.33"/>
<polygon fill="#9a32cd" stroke="#9a32cd" points="276.62,-89.97 283.09,-98.36 283.26,-87.77 276.62,-89.97"/>
</a>
</g>
<text text-anchor="middle" x="335.62" y="-72.75" font-family="Helvetica,sans-Serif" font-size="10.00" fill="grey"> mbIsInviteOnly</text>
<text text-anchor="middle" x="335.62" y="-61.5" font-family="Helvetica,sans-Serif" font-size="10.00" fill="grey">mbIsKeyRequired</text>
<text text-anchor="middle" x="335.62" y="-50.25" font-family="Helvetica,sans-Serif" font-size="10.00" fill="grey">mbIsLimitedMaxUserCount</text>
<text text-anchor="middle" x="335.62" y="-39" font-family="Helvetica,sans-Serif" font-size="10.00" fill="grey">mbIsProtectedTopic</text>
</g>
</g>
</svg>
</svg>

<style type='text/css'>
<![CDATA[
[data-mouse-over-selected='false'] { opacity: 0.7; }
[data-mouse-over-selected='true']  { opacity: 1.0; }
]]>
</style>
<script type="application/ecmascript"><![CDATA[
document.addEventListener('DOMContentLoaded', (event) => {
  highlightEdges();
  highlightAdjacentNodes();
});
]]></script>
</svg>
