<?xml version="1.0" encoding="UTF-8" standalone="no"?>
<!DOCTYPE svg PUBLIC "-//W3C//DTD SVG 1.1//EN"
 "http://www.w3.org/Graphics/SVG/1.1/DTD/svg11.dtd">
<!-- Generated by graphviz version 10.0.1 (20240210.2158)
 -->
<!-- Title: gdf::DisplayConsole Pages: 1 -->
<!--zoomable 372 -->

<svg id="main" version="1.1" xmlns="http://www.w3.org/2000/svg" xmlns:xlink="http://www.w3.org/1999/xlink" xml:space="preserve" onload="init(evt)">
<style type="text/css"><![CDATA[
.node, .edge {opacity: 0.7;}
.node.selected, .edge.selected {opacity: 1;}
.edge:hover path { stroke: red; }
.edge:hover polygon { stroke: red; fill: red; }
]]></style>

<defs>
  <circle id="rim" cx="0" cy="0" r="7"/>
  <circle id="rim2" cx="0" cy="0" r="3.5"/>
  <g id="zoomPlus">
    <use xlink:href="#rim" fill="#404040"><set attributeName="fill" to="#808080" begin="zoomplus.mouseover" end="zoomplus.mouseout"/></use>
    <path d="M-4,0h8M0,-4v8" fill="none" stroke="white" stroke-width="1.5" pointer-events="none"/>
  </g>
  <g id="zoomMin">
    <use xlink:href="#rim" fill="#404040"><set attributeName="fill" to="#808080" begin="zoomminus.mouseover" end="zoomminus.mouseout"/></use>
    <path d="M-4,0h8" fill="none" stroke="white" stroke-width="1.5" pointer-events="none"/>
  </g>
  <g id="arrowUp" transform="translate(30 24)">
    <use xlink:href="#rim"/>
    <path pointer-events="none" fill="none" stroke="white" stroke-width="1.5" d="M0,-3.0v7 M-2.5,-0.5L0,-3.0L2.5,-0.5"/>
  </g>
  <g id="arrowRight" transform="rotate(90) translate(36 -43)">
    <use xlink:href="#rim"/>
    <path pointer-events="none" fill="none" stroke="white" stroke-width="1.5" d="M0,-3.0v7 M-2.5,-0.5L0,-3.0L2.5,-0.5"/>
  </g>
  <g id="arrowDown" transform="rotate(180) translate(-30 -48)">
    <use xlink:href="#rim"/>
    <path pointer-events="none" fill="none" stroke="white" stroke-width="1.5" d="M0,-3.0v7 M-2.5,-0.5L0,-3.0L2.5,-0.5"/>
  </g>
  <g id="arrowLeft" transform="rotate(270) translate(-36 17)">
    <use xlink:href="#rim"/>
    <path pointer-events="none" fill="none" stroke="white" stroke-width="1.5" d="M0,-3.0v7 M-2.5,-0.5L0,-3.0L2.5,-0.5"/>
  </g>
  <g id="resetDef">
    <use xlink:href="#rim2" fill="#404040"><set attributeName="fill" to="#808080" begin="reset.mouseover" end="reset.mouseout"/></use>
  </g>
</defs>
<script type="application/ecmascript">
var viewWidth = 775;
var viewHeight = 372;
var sectionId = 'dynsection-0';
</script>
<script type="application/ecmascript" xlink:href="svg.min.js"/>
<svg id="graph" class="graph">
<g id="viewport">
<title>gdf::DisplayConsole</title>
<!-- Node1 -->
<g id="Node000001" class="node">
<title>Node1</title>
<g id="a_Node000001"><a xlink:title="콘솔화면에 텍스트와 프롬프트를 관리하고 출력하는 클래스">
<polygon fill="#999999" stroke="#666666" points="766.5,-159.31 662,-159.31 662,-140.06 766.5,-140.06 766.5,-159.31"/>
<text text-anchor="middle" x="714.25" y="-145.81" font-family="Helvetica,sans-Serif" font-size="10.00">gdf::DisplayConsole</text>
</a>
</g>
</g>
<!-- Node2 -->
<g id="Node000002" class="node">
<title>Node2</title>
<g id="a_Node000002"><a xlink:title=" ">
<polygon fill="white" stroke="#666666" points="138.25,-177.31 41.25,-177.31 41.25,-158.06 138.25,-158.06 138.25,-177.31"/>
<text text-anchor="middle" x="89.75" y="-163.81" font-family="Helvetica,sans-Serif" font-size="10.00">unsigned long long</text>
</a>
</g>
</g>
<!-- Node2&#45;&gt;Node1 -->
<g id="edge1_Node000001_Node000002" class="edge">
<title>Node2&#45;&gt;Node1</title>
<g id="a_edge1_Node000001_Node000002"><a xlink:title=" ">
<path fill="none" stroke="#9a32cd" stroke-dasharray="5,2" d="M149.95,-165.18C197.62,-163.22 266.36,-160.53 326.5,-158.69 446.5,-155 587.48,-152.07 661.63,-150.64"/>
<polygon fill="#9a32cd" stroke="#9a32cd" points="149.96,-161.68 140.12,-165.59 150.25,-168.67 149.96,-161.68"/>
</a>
</g>
<text text-anchor="middle" x="424.12" y="-194.19" font-family="Helvetica,sans-Serif" font-size="10.00" fill="grey"> mConsoleHeight</text>
<text text-anchor="middle" x="424.12" y="-182.94" font-family="Helvetica,sans-Serif" font-size="10.00" fill="grey">mConsoleWidth</text>
<text text-anchor="middle" x="424.12" y="-171.69" font-family="Helvetica,sans-Serif" font-size="10.00" fill="grey">mScreenBufferIndex</text>
<text text-anchor="middle" x="424.12" y="-160.44" font-family="Helvetica,sans-Serif" font-size="10.00" fill="grey">sStaticInstanceCount</text>
</g>
<!-- Node4 -->
<g id="Node000004" class="node">
<title>Node4</title>
<g id="a_Node000004"><a xlink:href="classgdf_1_1_display_buffer.html" target="_top" xlink:title="디스플레이에 표시되어야하는 텍스트를 저장하는 클래스">
<polygon fill="white" stroke="#666666" points="471.5,-232.31 376.75,-232.31 376.75,-213.06 471.5,-213.06 471.5,-232.31"/>
<text text-anchor="middle" x="424.12" y="-218.81" font-family="Helvetica,sans-Serif" font-size="10.00">gdf::DisplayBuffer</text>
</a>
</g>
</g>
<!-- Node2&#45;&gt;Node4 -->
<g id="edge5_Node000004_Node000002" class="edge">
<title>Node2&#45;&gt;Node4</title>
<g id="a_edge5_Node000004_Node000002"><a xlink:title=" ">
<path fill="none" stroke="#9a32cd" stroke-dasharray="5,2" d="M149.97,-177.48C214.74,-188.2 317.2,-205.16 376.51,-214.97"/>
<polygon fill="#9a32cd" stroke="#9a32cd" points="150.66,-174.05 140.22,-175.87 149.51,-180.96 150.66,-174.05"/>
</a>
</g>
<text text-anchor="middle" x="253" y="-204.44" font-family="Helvetica,sans-Serif" font-size="10.00" fill="grey"> mContentBufferCapacity</text>
</g>
<!-- Node3 -->
<g id="Node000003" class="node">
<title>Node3</title>
<g id="a_Node000003"><a xlink:title=" ">
<polygon fill="white" stroke="#666666" points="475.62,-269.31 372.62,-269.31 372.62,-250.06 475.62,-250.06 475.62,-269.31"/>
<text text-anchor="middle" x="424.12" y="-255.81" font-family="Helvetica,sans-Serif" font-size="10.00">static struct termios</text>
</a>
</g>
</g>
<!-- Node3&#45;&gt;Node1 -->
<g id="edge2_Node000001_Node000003" class="edge">
<title>Node3&#45;&gt;Node1</title>
<g id="a_edge2_Node000001_Node000003"><a xlink:title=" ">
<path fill="none" stroke="#9a32cd" stroke-dasharray="5,2" d="M487.07,-253.35C532.57,-246.76 594.77,-233.58 644,-207.69 668.43,-194.84 692,-172.24 704.35,-159.37"/>
<polygon fill="#9a32cd" stroke="#9a32cd" points="486.81,-249.86 477.38,-254.69 487.76,-256.79 486.81,-249.86"/>
</a>
</g>
<text text-anchor="middle" x="591.88" y="-244.44" font-family="Helvetica,sans-Serif" font-size="10.00" fill="grey"> sStaticOldTerminal</text>
</g>
<!-- Node4&#45;&gt;Node1 -->
<g id="edge3_Node000001_Node000004" class="edge">
<title>Node4&#45;&gt;Node1</title>
<g id="a_edge3_Node000001_Node000004"><a xlink:title=" ">
<path fill="none" stroke="#9a32cd" stroke-dasharray="5,2" d="M476.86,-209.91C491.39,-206.3 507.19,-202.36 521.75,-198.69 574.49,-185.39 635.33,-169.77 674.03,-159.81"/>
<polygon fill="#9a32cd" stroke="#9a32cd" points="476.38,-206.42 467.51,-212.23 478.06,-213.21 476.38,-206.42"/>
</a>
</g>
<text text-anchor="middle" x="591.88" y="-194.44" font-family="Helvetica,sans-Serif" font-size="10.00" fill="grey"> mDisplay</text>
</g>
<!-- Node5 -->
<g id="Node000005" class="node">
<title>Node5</title>
<g id="a_Node000005"><a xlink:title=" ">
<polygon fill="white" stroke="#666666" points="109.75,-273.31 69.75,-273.31 69.75,-254.06 109.75,-254.06 109.75,-273.31"/>
<text text-anchor="middle" x="89.75" y="-259.81" font-family="Helvetica,sans-Serif" font-size="10.00">string</text>
</a>
</g>
</g>
<!-- Node5&#45;&gt;Node1 -->
<g id="edge8_Node000001_Node000005" class="edge">
<title>Node5&#45;&gt;Node1</title>
<g id="a_edge8_Node000001_Node000005"><a xlink:title=" ">
<path fill="none" stroke="#9a32cd" stroke-dasharray="5,2" d="M120.94,-273.75C209.91,-301.42 475.43,-369.43 644,-257.69 680.94,-233.2 702.3,-181.52 709.97,-159.72"/>
<polygon fill="#9a32cd" stroke="#9a32cd" points="122.08,-270.44 111.49,-270.75 119.96,-277.11 122.08,-270.44"/>
</a>
</g>
<text text-anchor="middle" x="424.12" y="-354.19" font-family="Helvetica,sans-Serif" font-size="10.00" fill="grey"> mFooterColor</text>
<text text-anchor="middle" x="424.12" y="-342.94" font-family="Helvetica,sans-Serif" font-size="10.00" fill="grey">mHeaderColor</text>
<text text-anchor="middle" x="424.12" y="-331.69" font-family="Helvetica,sans-Serif" font-size="10.00" fill="grey">mPromptBuffer</text>
<text text-anchor="middle" x="424.12" y="-320.44" font-family="Helvetica,sans-Serif" font-size="10.00" fill="grey">mScreenBuffer</text>
</g>
<!-- Node5&#45;&gt;Node4 -->
<g id="edge4_Node000004_Node000005" class="edge">
<title>Node5&#45;&gt;Node4</title>
<g id="a_edge4_Node000004_Node000005"><a xlink:title=" ">
<path fill="none" stroke="#9a32cd" stroke-dasharray="5,2" d="M121.36,-260.14C163.52,-255.23 241.8,-246.03 308.5,-237.69 330.8,-234.89 355.53,-231.67 376.29,-228.94"/>
<polygon fill="#9a32cd" stroke="#9a32cd" points="121.02,-256.66 111.49,-261.29 121.82,-263.61 121.02,-256.66"/>
</a>
</g>
<text text-anchor="middle" x="253" y="-263.69" font-family="Helvetica,sans-Serif" font-size="10.00" fill="grey"> mFooter</text>
<text text-anchor="middle" x="253" y="-252.44" font-family="Helvetica,sans-Serif" font-size="10.00" fill="grey">mHeader</text>
</g>
<!-- Node6 -->
<g id="Node000006" class="node">
<title>Node6</title>
<g id="a_Node000006"><a xlink:title=" ">
<polygon fill="white" stroke="#666666" points="179.5,-232.31 0,-232.31 0,-213.06 179.5,-213.06 179.5,-232.31"/>
<text text-anchor="middle" x="89.75" y="-218.81" font-family="Helvetica,sans-Serif" font-size="10.00">deque&lt; gdf::DisplayBuffer::Content &gt;</text>
</a>
</g>
</g>
<!-- Node6&#45;&gt;Node4 -->
<g id="edge6_Node000004_Node000006" class="edge">
<title>Node6&#45;&gt;Node4</title>
<g id="a_edge6_Node000004_Node000006"><a xlink:title=" ">
<path fill="none" stroke="#9a32cd" stroke-dasharray="5,2" d="M191.13,-222.69C252.63,-222.69 328.49,-222.69 376.34,-222.69"/>
<polygon fill="#9a32cd" stroke="#9a32cd" points="191.33,-219.19 181.33,-222.69 191.33,-226.19 191.33,-219.19"/>
</a>
</g>
<text text-anchor="middle" x="253" y="-224.44" font-family="Helvetica,sans-Serif" font-size="10.00" fill="grey"> mContentBuffer</text>
</g>
<!-- Node7 -->
<g id="Node000007" class="node">
<title>Node7</title>
<g id="a_Node000007"><a xlink:title=" ">
<polygon fill="white" stroke="#666666" points="521.75,-113.31 326.5,-113.31 326.5,-94.06 521.75,-94.06 521.75,-113.31"/>
<text text-anchor="middle" x="424.12" y="-99.81" font-family="Helvetica,sans-Serif" font-size="10.00">map&lt; DisplayBuffer::eColor, std::string &gt;</text>
</a>
</g>
</g>
<!-- Node7&#45;&gt;Node1 -->
<g id="edge7_Node000001_Node000007" class="edge">
<title>Node7&#45;&gt;Node1</title>
<g id="a_edge7_Node000001_Node000007"><a xlink:title=" ">
<path fill="none" stroke="#9a32cd" stroke-dasharray="5,2" d="M533.5,-108.47C569.02,-111.49 608.47,-116.41 644,-124.44 659.85,-128.02 677.02,-134.26 690.3,-139.64"/>
<polygon fill="#9a32cd" stroke="#9a32cd" points="533.88,-104.99 523.63,-107.67 533.32,-111.96 533.88,-104.99"/>
</a>
</g>
<text text-anchor="middle" x="591.88" y="-125.44" font-family="Helvetica,sans-Serif" font-size="10.00" fill="grey"> mANSIColors</text>
</g>
<!-- Node8 -->
<g id="Node000008" class="node">
<title>Node8</title>
<g id="a_Node000008"><a xlink:title=" ">
<polygon fill="white" stroke="#666666" points="441.12,-65.31 407.12,-65.31 407.12,-46.06 441.12,-46.06 441.12,-65.31"/>
<text text-anchor="middle" x="424.12" y="-51.81" font-family="Helvetica,sans-Serif" font-size="10.00">bool</text>
</a>
</g>
</g>
<!-- Node8&#45;&gt;Node1 -->
<g id="edge9_Node000001_Node000008" class="edge">
<title>Node8&#45;&gt;Node1</title>
<g id="a_edge9_Node000001_Node000008"><a xlink:title=" ">
<path fill="none" stroke="#9a32cd" stroke-dasharray="5,2" d="M452.38,-49.02C495.63,-39.95 581.48,-28.19 644,-59.69 678.33,-76.98 700.54,-120.15 709.18,-139.74"/>
<polygon fill="#9a32cd" stroke="#9a32cd" points="451.84,-45.55 442.84,-51.14 453.36,-52.38 451.84,-45.55"/>
</a>
</g>
<text text-anchor="middle" x="591.88" y="-95.19" font-family="Helvetica,sans-Serif" font-size="10.00" fill="grey"> bIsFailed</text>
<text text-anchor="middle" x="591.88" y="-83.94" font-family="Helvetica,sans-Serif" font-size="10.00" fill="grey">bIsScreenBufferRemain</text>
<text text-anchor="middle" x="591.88" y="-72.69" font-family="Helvetica,sans-Serif" font-size="10.00" fill="grey">bIsScreenUpdated</text>
<text text-anchor="middle" x="591.88" y="-61.44" font-family="Helvetica,sans-Serif" font-size="10.00" fill="grey">bIsTimestampEnabled</text>
</g>
<!-- Node9 -->
<g id="Node000009" class="node">
<title>Node9</title>
<g id="a_Node000009"><a xlink:title=" ">
<polygon fill="white" stroke="#666666" points="476,-28.31 372.25,-28.31 372.25,-9.06 476,-9.06 476,-28.31"/>
<text text-anchor="middle" x="424.12" y="-14.81" font-family="Helvetica,sans-Serif" font-size="10.00">deque&lt; std::string &gt;</text>
</a>
</g>
</g>
<!-- Node9&#45;&gt;Node1 -->
<g id="edge10_Node000001_Node000009" class="edge">
<title>Node9&#45;&gt;Node1</title>
<g id="a_edge10_Node000001_Node000009"><a xlink:title=" ">
<path fill="none" stroke="#9a32cd" stroke-dasharray="5,2" d="M476.33,-6.48C523.43,1.78 593.43,6.29 644,-24.44 687.53,-50.89 705.75,-115.29 711.28,-139.9"/>
<polygon fill="#9a32cd" stroke="#9a32cd" points="475.84,-3.01 466.66,-8.3 477.13,-9.89 475.84,-3.01"/>
</a>
</g>
<text text-anchor="middle" x="591.88" y="-26.44" font-family="Helvetica,sans-Serif" font-size="10.00" fill="grey"> mPromptQueue</text>
</g>
</g>
</svg>

<g id="navigator" transform="translate(0 0)" fill="#404254">
  <rect fill="#f2f5e9" fill-opacity="0.5" stroke="#606060" stroke-width=".5" x="0" y="0" width="60" height="60"/>
  <use id="zoomplus" xlink:href="#zoomPlus" x="17" y="9" onmousedown="handleZoom(evt,'in')"/>
  <use id="zoomminus" xlink:href="#zoomMin" x="42" y="9" onmousedown="handleZoom(evt,'out')"/>
  <use id="reset" xlink:href="#resetDef" x="30" y="36" onmousedown="handleReset()"/>
   <use id="arrowup" xlink:href="#arrowUp" x="0" y="0" onmousedown="handlePan(0,-1)"/>
  <use id="arrowright" xlink:href="#arrowRight" x="0" y="0" onmousedown="handlePan(1,0)"/>
  <use id="arrowdown" xlink:href="#arrowDown" x="0" y="0" onmousedown="handlePan(0,1)"/>
  <use id="arrowleft" xlink:href="#arrowLeft" x="0" y="0" onmousedown="handlePan(-1,0)"/>
</g>
<svg viewBox="0 0 15 15" width="100%" height="30px" preserveAspectRatio="xMaxYMin meet">
 <g id="arrow_out" transform="scale(0.3 0.3)">
  <a xlink:href="classgdf_1_1_display_console__coll__graph_org.svg" target="_base">
   <rect id="button" ry="5" rx="5" y="6" x="6" height="38" width="38"
        fill="#f2f5e9" fill-opacity="0.5" stroke="#606060" stroke-width="1.0"/>
   <path id="arrow"
     d="M 11.500037,31.436501 C 11.940474,20.09759 22.043105,11.32322 32.158766,21.979434 L 37.068811,17.246167 C 37.068811,17.246167 37.088388,32 37.088388,32 L 22.160133,31.978069 C 22.160133,31.978069 26.997745,27.140456 26.997745,27.140456 C 18.528582,18.264221 13.291696,25.230495 11.500037,31.436501 z"
     style="fill:#404040;"/>
  </a>
 </g>
</svg>

<style type='text/css'>
<![CDATA[
[data-mouse-over-selected='false'] { opacity: 0.7; }
[data-mouse-over-selected='true']  { opacity: 1.0; }
]]>
</style>
<script type="application/ecmascript"><![CDATA[
document.addEventListener('DOMContentLoaded', (event) => {
  highlightEdges();
  highlightAdjacentNodes();
});
]]></script>
</svg>
