<?xml version="1.0" encoding="UTF-8" standalone="no"?>
<!DOCTYPE svg PUBLIC "-//W3C//DTD SVG 1.1//EN"
 "http://www.w3.org/Graphics/SVG/1.1/DTD/svg11.dtd">
<!-- Generated by graphviz version 10.0.1 (20240210.2158)
 -->
<!-- Title: gdf::AssertStream Pages: 1 -->
<svg width="332pt" height="116pt"
 viewBox="0.00 0.00 331.62 116.25" xmlns="http://www.w3.org/2000/svg" xmlns:xlink="http://www.w3.org/1999/xlink">
<g id="graph0" class="graph" transform="scale(1 1) rotate(0) translate(4 112.25)">
<title>gdf::AssertStream</title>
<!-- Node1 -->
<g id="Node000001" class="node">
<title>Node1</title>
<g id="a_Node000001"><a xlink:title="조건 검증을 위한 스트림 클래스 (RAII 패턴으로 메소드 처럼 사용)">
<polygon fill="#999999" stroke="#666666" points="191.75,-19.25 96.25,-19.25 96.25,0 191.75,0 191.75,-19.25"/>
<text text-anchor="middle" x="144" y="-5.75" font-family="Helvetica,sans-Serif" font-size="10.00">gdf::AssertStream</text>
</a>
</g>
</g>
<!-- Node2 -->
<g id="Node000002" class="node">
<title>Node2</title>
<g id="a_Node000002"><a xlink:title=" ">
<polygon fill="white" stroke="#666666" points="34,-108.25 0,-108.25 0,-89 34,-89 34,-108.25"/>
<text text-anchor="middle" x="17" y="-94.75" font-family="Helvetica,sans-Serif" font-size="10.00">bool</text>
</a>
</g>
</g>
<!-- Node2&#45;&gt;Node1 -->
<g id="edge1_Node000001_Node000002" class="edge">
<title>Node2&#45;&gt;Node1</title>
<g id="a_edge1_Node000001_Node000002"><a xlink:title=" ">
<path fill="none" stroke="#9a32cd" stroke-dasharray="5,2" d="M16.69,-77.64C17.58,-64.46 20.97,-47.75 31.5,-37.25 40.74,-28.04 69.61,-21.32 95.78,-16.93"/>
<polygon fill="#9a32cd" stroke="#9a32cd" points="13.19,-77.29 16.48,-87.37 20.19,-77.44 13.19,-77.29"/>
</a>
</g>
<text text-anchor="middle" x="56.75" y="-50.25" font-family="Helvetica,sans-Serif" font-size="10.00" fill="grey"> bCondition</text>
</g>
<!-- Node3 -->
<g id="Node000003" class="node">
<title>Node3</title>
<g id="a_Node000003"><a xlink:title=" ">
<polygon fill="white" stroke="#666666" points="107.38,-108.25 72.62,-108.25 72.62,-89 107.38,-89 107.38,-108.25"/>
<text text-anchor="middle" x="90" y="-94.75" font-family="Helvetica,sans-Serif" font-size="10.00">char</text>
</a>
</g>
</g>
<!-- Node3&#45;&gt;Node1 -->
<g id="edge2_Node000001_Node000003" class="edge">
<title>Node3&#45;&gt;Node1</title>
<g id="a_edge2_Node000001_Node000003"><a xlink:title=" ">
<path fill="none" stroke="#9a32cd" stroke-dasharray="5,2" d="M85.57,-77.51C83.94,-65 84.03,-49.09 91.5,-37.25 96.46,-29.39 104.53,-23.75 112.87,-19.75"/>
<polygon fill="#9a32cd" stroke="#9a32cd" points="82.08,-77.9 87.29,-87.13 88.97,-76.67 82.08,-77.9"/>
</a>
</g>
<text text-anchor="middle" x="134.75" y="-61.5" font-family="Helvetica,sans-Serif" font-size="10.00" fill="grey"> mExpressionString</text>
<text text-anchor="middle" x="134.75" y="-50.25" font-family="Helvetica,sans-Serif" font-size="10.00" fill="grey">mFileName</text>
<text text-anchor="middle" x="134.75" y="-39" font-family="Helvetica,sans-Serif" font-size="10.00" fill="grey">mFunctionName</text>
</g>
<!-- Node4 -->
<g id="Node000004" class="node">
<title>Node4</title>
<g id="a_Node000004"><a xlink:title=" ">
<polygon fill="white" stroke="#666666" points="213.4,-108.25 184.6,-108.25 184.6,-89 213.4,-89 213.4,-108.25"/>
<text text-anchor="middle" x="199" y="-94.75" font-family="Helvetica,sans-Serif" font-size="10.00">int</text>
</a>
</g>
</g>
<!-- Node4&#45;&gt;Node1 -->
<g id="edge3_Node000001_Node000004" class="edge">
<title>Node4&#45;&gt;Node1</title>
<g id="a_edge3_Node000001_Node000004"><a xlink:title=" ">
<path fill="none" stroke="#9a32cd" stroke-dasharray="5,2" d="M194.66,-77.7C191.27,-65.26 185.66,-49.37 177,-37.25 172.03,-30.3 164.79,-24.19 158.36,-19.57"/>
<polygon fill="#9a32cd" stroke="#9a32cd" points="191.22,-78.36 196.98,-87.25 198.02,-76.71 191.22,-78.36"/>
</a>
</g>
<text text-anchor="middle" x="223.88" y="-50.25" font-family="Helvetica,sans-Serif" font-size="10.00" fill="grey"> mLineNumber</text>
</g>
<!-- Node5 -->
<g id="Node000005" class="node">
<title>Node5</title>
<g id="a_Node000005"><a xlink:title=" ">
<polygon fill="white" stroke="#666666" points="323.62,-108.25 248.38,-108.25 248.38,-89 323.62,-89 323.62,-108.25"/>
<text text-anchor="middle" x="286" y="-94.75" font-family="Helvetica,sans-Serif" font-size="10.00">ostringstream</text>
</a>
</g>
</g>
<!-- Node5&#45;&gt;Node1 -->
<g id="edge4_Node000001_Node000005" class="edge">
<title>Node5&#45;&gt;Node1</title>
<g id="a_edge4_Node000001_Node000005"><a xlink:title=" ">
<path fill="none" stroke="#9a32cd" stroke-dasharray="5,2" d="M282.33,-77.78C278.84,-64.42 272.22,-47.43 260,-37.25 241.19,-21.57 214.94,-14.7 192.17,-11.85"/>
<polygon fill="#9a32cd" stroke="#9a32cd" points="278.85,-78.25 284.41,-87.26 285.69,-76.74 278.85,-78.25"/>
</a>
</g>
<text text-anchor="middle" x="300.38" y="-50.25" font-family="Helvetica,sans-Serif" font-size="10.00" fill="grey"> mStream</text>
</g>
</g>
</svg>
