<?xml version="1.0" encoding="UTF-8" standalone="no"?>
<!DOCTYPE svg PUBLIC "-//W3C//DTD SVG 1.1//EN"
 "http://www.w3.org/Graphics/SVG/1.1/DTD/svg11.dtd">
<!-- Generated by graphviz version 10.0.1 (20240210.2158)
 -->
<!-- Title: GlobalLogger::LogStream Pages: 1 -->
<svg width="344pt" height="105pt"
 viewBox="0.00 0.00 343.88 105.00" xmlns="http://www.w3.org/2000/svg" xmlns:xlink="http://www.w3.org/1999/xlink">

<svg id="main" version="1.1" xmlns="http://www.w3.org/2000/svg" xmlns:xlink="http://www.w3.org/1999/xlink" xml:space="preserve" onload="init(evt)">
<style type="text/css"><![CDATA[
.node, .edge {opacity: 0.7;}
.node.selected, .edge.selected {opacity: 1;}
.edge:hover path { stroke: red; }
.edge:hover polygon { stroke: red; fill: red; }
]]></style>
<script type="application/ecmascript" xlink:href="svg.min.js"/>
<svg id="graph" class="graph">
<g id="graph0" class="graph" transform="scale(1 1) rotate(0) translate(4 101)">
<title>GlobalLogger::LogStream</title>
<!-- Node1 -->
<g id="Node000001" class="node">
<title>Node1</title>
<g id="a_Node000001"><a xlink:title="로그 메세지를 스트림으로 받는 클래스">
<polygon fill="#999999" stroke="#666666" points="226.38,-19.25 100.12,-19.25 100.12,0 226.38,0 226.38,-19.25"/>
<text text-anchor="middle" x="163.25" y="-5.75" font-family="Helvetica,sans-Serif" font-size="10.00">GlobalLogger::LogStream</text>
</a>
</g>
</g>
<!-- Node2 -->
<g id="Node000002" class="node">
<title>Node2</title>
<g id="a_Node000002"><a xlink:title=" ">
<polygon fill="white" stroke="#666666" points="80.5,-97 0,-97 0,-77.75 80.5,-77.75 80.5,-97"/>
<text text-anchor="middle" x="40.25" y="-83.5" font-family="Helvetica,sans-Serif" font-size="10.00">eSeverityLevel</text>
</a>
</g>
</g>
<!-- Node2&#45;&gt;Node1 -->
<g id="edge1_Node000001_Node000002" class="edge">
<title>Node2&#45;&gt;Node1</title>
<g id="a_edge1_Node000001_Node000002"><a xlink:title=" ">
<path fill="none" stroke="#9a32cd" stroke-dasharray="5,2" d="M48.82,-67.24C54.31,-56.99 62.36,-44.92 72.75,-37.25 83.55,-29.27 96.72,-23.67 109.63,-19.75"/>
<polygon fill="#9a32cd" stroke="#9a32cd" points="45.79,-65.47 44.55,-75.99 52.08,-68.54 45.79,-65.47"/>
</a>
</g>
<text text-anchor="middle" x="90.5" y="-44.62" font-family="Helvetica,sans-Serif" font-size="10.00" fill="grey"> mLevel</text>
</g>
<!-- Node3 -->
<g id="Node000003" class="node">
<title>Node3</title>
<g id="a_Node000003"><a xlink:title=" ">
<polygon fill="white" stroke="#666666" points="133.62,-97 98.88,-97 98.88,-77.75 133.62,-77.75 133.62,-97"/>
<text text-anchor="middle" x="116.25" y="-83.5" font-family="Helvetica,sans-Serif" font-size="10.00">char</text>
</a>
</g>
</g>
<!-- Node3&#45;&gt;Node1 -->
<g id="edge2_Node000001_Node000003" class="edge">
<title>Node3&#45;&gt;Node1</title>
<g id="a_edge2_Node000001_Node000003"><a xlink:title=" ">
<path fill="none" stroke="#9a32cd" stroke-dasharray="5,2" d="M112.32,-66.21C111.53,-56.81 112.18,-45.83 117.25,-37.25 121.85,-29.46 129.67,-23.74 137.56,-19.63"/>
<polygon fill="#9a32cd" stroke="#9a32cd" points="108.82,-66.44 113.72,-75.83 115.75,-65.43 108.82,-66.44"/>
</a>
</g>
<text text-anchor="middle" x="153.25" y="-50.25" font-family="Helvetica,sans-Serif" font-size="10.00" fill="grey"> mFileName</text>
<text text-anchor="middle" x="153.25" y="-39" font-family="Helvetica,sans-Serif" font-size="10.00" fill="grey">mFunctionName</text>
</g>
<!-- Node4 -->
<g id="Node000004" class="node">
<title>Node4</title>
<g id="a_Node000004"><a xlink:title=" ">
<polygon fill="white" stroke="#666666" points="225.65,-97 196.85,-97 196.85,-77.75 225.65,-77.75 225.65,-97"/>
<text text-anchor="middle" x="211.25" y="-83.5" font-family="Helvetica,sans-Serif" font-size="10.00">int</text>
</a>
</g>
</g>
<!-- Node4&#45;&gt;Node1 -->
<g id="edge3_Node000001_Node000004" class="edge">
<title>Node4&#45;&gt;Node1</title>
<g id="a_edge3_Node000001_Node000004"><a xlink:title=" ">
<path fill="none" stroke="#9a32cd" stroke-dasharray="5,2" d="M204.38,-66.92C200.62,-57.54 195.46,-46.38 189.25,-37.25 184.82,-30.73 178.7,-24.38 173.52,-19.52"/>
<polygon fill="#9a32cd" stroke="#9a32cd" points="201.05,-68 207.84,-76.14 207.6,-65.54 201.05,-68"/>
</a>
</g>
<text text-anchor="middle" x="232.12" y="-44.62" font-family="Helvetica,sans-Serif" font-size="10.00" fill="grey"> mLineNumber</text>
</g>
<!-- Node5 -->
<g id="Node000005" class="node">
<title>Node5</title>
<g id="a_Node000005"><a xlink:title=" ">
<polygon fill="white" stroke="#666666" points="335.88,-97 260.62,-97 260.62,-77.75 335.88,-77.75 335.88,-97"/>
<text text-anchor="middle" x="298.25" y="-83.5" font-family="Helvetica,sans-Serif" font-size="10.00">ostringstream</text>
</a>
</g>
</g>
<!-- Node5&#45;&gt;Node1 -->
<g id="edge4_Node000001_Node000005" class="edge">
<title>Node5&#45;&gt;Node1</title>
<g id="a_edge4_Node000001_Node000005"><a xlink:title=" ">
<path fill="none" stroke="#9a32cd" stroke-dasharray="5,2" d="M290.62,-66.77C285.69,-56.54 278.3,-44.66 268.25,-37.25 256.14,-28.32 241.35,-22.37 226.73,-18.41"/>
<polygon fill="#9a32cd" stroke="#9a32cd" points="287.37,-68.09 294.55,-75.88 293.8,-65.32 287.37,-68.09"/>
</a>
</g>
<text text-anchor="middle" x="306.62" y="-44.62" font-family="Helvetica,sans-Serif" font-size="10.00" fill="grey"> mStream</text>
</g>
</g>
</svg>
</svg>

<style type='text/css'>
<![CDATA[
[data-mouse-over-selected='false'] { opacity: 0.7; }
[data-mouse-over-selected='true']  { opacity: 1.0; }
]]>
</style>
<script type="application/ecmascript"><![CDATA[
document.addEventListener('DOMContentLoaded', (event) => {
  highlightEdges();
  highlightAdjacentNodes();
});
]]></script>
</svg>
