<?xml version="1.0" encoding="UTF-8" standalone="no"?>
<!DOCTYPE svg PUBLIC "-//W3C//DTD SVG 1.1//EN"
 "http://www.w3.org/Graphics/SVG/1.1/DTD/svg11.dtd">
<!-- Generated by graphviz version 10.0.1 (20240210.2158)
 -->
<!-- Title: /Users/wasavi/ft_irc/extlibs Pages: 1 -->
<svg width="1096pt" height="163pt"
 viewBox="0.00 0.00 1096.00 162.50" xmlns="http://www.w3.org/2000/svg" xmlns:xlink="http://www.w3.org/1999/xlink">
<g id="graph0" class="graph" transform="scale(1 1) rotate(0) translate(4 158.5)">
<title>/Users/wasavi/ft_irc/extlibs</title>
<g id="clust1" class="cluster">
<title>clusterdir_8b7716b9b800d0de3bc359cb6443f4fa</title>
<g id="a_clust1"><a xlink:href="dir_8b7716b9b800d0de3bc359cb6443f4fa.html" target="_top">
<polygon fill="#daedff" stroke="#404040" stroke-width="2" points="8,-8 8,-146.5 1080,-146.5 1080,-8 8,-8"/>
</a>
</g>
</g>
<g id="clust2" class="cluster">
<title>clusterdir_bef19920b273cf8c05651df096cd4450</title>
<g id="a_clust2"><a xlink:href="dir_bef19920b273cf8c05651df096cd4450.html" target="_top">
<polygon fill="#cde7ff" stroke="#404040" points="16,-16 16,-138.5 1018,-138.5 1018,-16 16,-16"/>
</a>
</g>
</g>
<g id="clust3" class="cluster">
<title>clusterdir_12bd25613cb30691c3a60253a2ac855d</title>
<g id="a_clust3"><a xlink:href="dir_12bd25613cb30691c3a60253a2ac855d.html" target="_top">
<polygon fill="#c0e0ff" stroke="#404040" points="24,-24 24,-130.5 478,-130.5 478,-24 24,-24"/>
</a>
</g>
</g>
<g id="clust4" class="cluster">
<title>clusterdir_5fc1525b4fd8e238e1c2a77dc7136829</title>
<g id="a_clust4"><a xlink:href="dir_5fc1525b4fd8e238e1c2a77dc7136829.html" target="_top">
<polygon fill="#b0d9ff" stroke="#404040" points="32,-32 32,-122.5 416,-122.5 416,-32 32,-32"/>
</a>
</g>
</g>
<g id="clust5" class="cluster">
<title>clusterdir_99d0f3ad2022c3d26dd0cd5d7a47d9d5</title>
<g id="a_clust5"><a xlink:href="dir_99d0f3ad2022c3d26dd0cd5d7a47d9d5.html" target="_top">
<polygon fill="#c0e0ff" stroke="#404040" points="486,-79.25 486,-130.5 942,-130.5 942,-79.25 486,-79.25"/>
</a>
</g>
</g>
<g id="clust6" class="cluster">
<title>clusterdir_8876ee868f179f49ac283f8f40dce792</title>
<g id="a_clust6"><a xlink:href="dir_8876ee868f179f49ac283f8f40dce792.html" target="_top">
<polygon fill="#b0d9ff" stroke="#404040" points="494,-87.25 494,-122.5 895,-122.5 895,-87.25 494,-87.25"/>
</a>
</g>
</g>
<!-- dir_8b7716b9b800d0de3bc359cb6443f4fa -->
<g id="node1" class="node">
<title>dir_8b7716b9b800d0de3bc359cb6443f4fa</title>
<text text-anchor="middle" x="1050" y="-101" font-family="Helvetica,sans-Serif" font-size="10.00">extlibs</text>
</g>
<!-- dir_bef19920b273cf8c05651df096cd4450 -->
<g id="node2" class="node">
<title>dir_bef19920b273cf8c05651df096cd4450</title>
<text text-anchor="middle" x="981" y="-101" font-family="Helvetica,sans-Serif" font-size="10.00">libbsd&#45;gdf</text>
</g>
<!-- dir_12bd25613cb30691c3a60253a2ac855d -->
<g id="node3" class="node">
<title>dir_12bd25613cb30691c3a60253a2ac855d</title>
<text text-anchor="middle" x="447" y="-101" font-family="Helvetica,sans-Serif" font-size="10.00">include</text>
</g>
<!-- dir_5fc1525b4fd8e238e1c2a77dc7136829 -->
<g id="node4" class="node">
<title>dir_5fc1525b4fd8e238e1c2a77dc7136829</title>
<text text-anchor="middle" x="217" y="-101" font-family="Helvetica,sans-Serif" font-size="10.00">BSD&#45;GDF</text>
</g>
<!-- dir_7364a00bd693c244d3549160708b16d9 -->
<g id="node5" class="node">
<title>dir_7364a00bd693c244d3549160708b16d9</title>
<g id="a_node5"><a xlink:href="dir_7364a00bd693c244d3549160708b16d9.html" target="_top" xlink:title="Assert">
<polygon fill="#a3d2ff" stroke="#404040" points="340.25,-59.25 295.75,-59.25 295.75,-40 340.25,-40 340.25,-59.25"/>
<text text-anchor="middle" x="318" y="-45.75" font-family="Helvetica,sans-Serif" font-size="10.00">Assert</text>
</a>
</g>
</g>
<!-- dir_5fc1525b4fd8e238e1c2a77dc7136829&#45;&gt;dir_7364a00bd693c244d3549160708b16d9 -->
<g id="edge5" class="edge">
<title>dir_5fc1525b4fd8e238e1c2a77dc7136829&#45;&gt;dir_7364a00bd693c244d3549160708b16d9</title>
<g id="a_edge5"><a xlink:href="dir_000003_000001.html" target="_top">
<path fill="none" stroke="#63b8ff" d="M227.97,-95.28C234.68,-90.25 243.58,-83.97 252,-79.25 262.46,-73.38 274.35,-67.89 285.14,-63.32"/>
<polygon fill="#63b8ff" stroke="#63b8ff" points="286.14,-66.69 294.06,-59.65 283.48,-60.22 286.14,-66.69"/>
</a>
</g>
<g id="a_edge5&#45;headlabel"><a xlink:href="dir_000003_000001.html" target="_top" xlink:title="1">
<text text-anchor="middle" x="285.3" y="-66.23" font-family="Helvetica,sans-Serif" font-size="10.00" fill="#63b8ff">1</text>
</a>
</g>
</g>
<!-- dir_36cdf87c83738e9308d257cd6700c3d3 -->
<g id="node6" class="node">
<title>dir_36cdf87c83738e9308d257cd6700c3d3</title>
<g id="a_node6"><a xlink:href="dir_36cdf87c83738e9308d257cd6700c3d3.html" target="_top" xlink:title="Config">
<polygon fill="#a3d2ff" stroke="#404040" points="84.25,-59.25 39.75,-59.25 39.75,-40 84.25,-40 84.25,-59.25"/>
<text text-anchor="middle" x="62" y="-45.75" font-family="Helvetica,sans-Serif" font-size="10.00">Config</text>
</a>
</g>
</g>
<!-- dir_5fc1525b4fd8e238e1c2a77dc7136829&#45;&gt;dir_36cdf87c83738e9308d257cd6700c3d3 -->
<g id="edge2" class="edge">
<title>dir_5fc1525b4fd8e238e1c2a77dc7136829&#45;&gt;dir_36cdf87c83738e9308d257cd6700c3d3</title>
<g id="a_edge2"><a xlink:href="dir_000003_000005.html" target="_top">
<path fill="none" stroke="#63b8ff" d="M192.1,-95.32C165.81,-86.29 124.23,-72 95.17,-62.02"/>
<polygon fill="#63b8ff" stroke="#63b8ff" points="96.35,-58.73 85.76,-58.79 94.08,-65.35 96.35,-58.73"/>
</a>
</g>
<g id="a_edge2&#45;headlabel"><a xlink:href="dir_000003_000005.html" target="_top" xlink:title="1">
<text text-anchor="middle" x="99.24" y="-52.84" font-family="Helvetica,sans-Serif" font-size="10.00" fill="#63b8ff">1</text>
</a>
</g>
</g>
<!-- dir_6535c475324d90b3befd64902c07da2a -->
<g id="node7" class="node">
<title>dir_6535c475324d90b3befd64902c07da2a</title>
<g id="a_node7"><a xlink:href="dir_6535c475324d90b3befd64902c07da2a.html" target="_top" xlink:title="Display">
<polygon fill="#a3d2ff" stroke="#404040" points="407.5,-59.25 358.5,-59.25 358.5,-40 407.5,-40 407.5,-59.25"/>
<text text-anchor="middle" x="383" y="-45.75" font-family="Helvetica,sans-Serif" font-size="10.00">Display</text>
</a>
</g>
</g>
<!-- dir_5fc1525b4fd8e238e1c2a77dc7136829&#45;&gt;dir_6535c475324d90b3befd64902c07da2a -->
<g id="edge4" class="edge">
<title>dir_5fc1525b4fd8e238e1c2a77dc7136829&#45;&gt;dir_6535c475324d90b3befd64902c07da2a</title>
<g id="a_edge4"><a xlink:href="dir_000003_000007.html" target="_top">
<path fill="none" stroke="#63b8ff" d="M226.75,-95.36C233.43,-89.96 242.73,-83.26 252,-79.25 289.4,-63.07 303.92,-68.16 347.17,-59.45"/>
<polygon fill="#63b8ff" stroke="#63b8ff" points="347.64,-62.93 356.67,-57.39 346.16,-56.08 347.64,-62.93"/>
</a>
</g>
<g id="a_edge4&#45;headlabel"><a xlink:href="dir_000003_000007.html" target="_top" xlink:title="2">
<text text-anchor="middle" x="346.2" y="-62.27" font-family="Helvetica,sans-Serif" font-size="10.00" fill="#63b8ff">2</text>
</a>
</g>
</g>
<!-- dir_5b2139133b82c782a0ec898d30c00bfc -->
<g id="node8" class="node">
<title>dir_5b2139133b82c782a0ec898d30c00bfc</title>
<g id="a_node8"><a xlink:href="dir_5b2139133b82c782a0ec898d30c00bfc.html" target="_top" xlink:title="Event">
<polygon fill="#a3d2ff" stroke="#404040" points="143.75,-59.25 102.25,-59.25 102.25,-40 143.75,-40 143.75,-59.25"/>
<text text-anchor="middle" x="123" y="-45.75" font-family="Helvetica,sans-Serif" font-size="10.00">Event</text>
</a>
</g>
</g>
<!-- dir_5fc1525b4fd8e238e1c2a77dc7136829&#45;&gt;dir_5b2139133b82c782a0ec898d30c00bfc -->
<g id="edge3" class="edge">
<title>dir_5fc1525b4fd8e238e1c2a77dc7136829&#45;&gt;dir_5b2139133b82c782a0ec898d30c00bfc</title>
<g id="a_edge3"><a xlink:href="dir_000003_000009.html" target="_top">
<path fill="none" stroke="#63b8ff" d="M201.9,-95.32C187.63,-87.24 165.93,-74.95 148.9,-65.3"/>
<polygon fill="#63b8ff" stroke="#63b8ff" points="150.75,-62.32 140.33,-60.44 147.3,-68.41 150.75,-62.32"/>
</a>
</g>
<g id="a_edge3&#45;headlabel"><a xlink:href="dir_000003_000009.html" target="_top" xlink:title="2">
<text text-anchor="middle" x="153.96" y="-57" font-family="Helvetica,sans-Serif" font-size="10.00" fill="#63b8ff">2</text>
</a>
</g>
</g>
<!-- dir_2fa0920537aea18161ab8218923cd9be -->
<g id="node9" class="node">
<title>dir_2fa0920537aea18161ab8218923cd9be</title>
<g id="a_node9"><a xlink:href="dir_2fa0920537aea18161ab8218923cd9be.html" target="_top" xlink:title="Logger">
<polygon fill="#a3d2ff" stroke="#404040" points="206.62,-59.25 161.38,-59.25 161.38,-40 206.62,-40 206.62,-59.25"/>
<text text-anchor="middle" x="184" y="-45.75" font-family="Helvetica,sans-Serif" font-size="10.00">Logger</text>
</a>
</g>
</g>
<!-- dir_5fc1525b4fd8e238e1c2a77dc7136829&#45;&gt;dir_2fa0920537aea18161ab8218923cd9be -->
<g id="edge1" class="edge">
<title>dir_5fc1525b4fd8e238e1c2a77dc7136829&#45;&gt;dir_2fa0920537aea18161ab8218923cd9be</title>
<g id="a_edge1"><a xlink:href="dir_000003_000016.html" target="_top">
<path fill="none" stroke="#63b8ff" d="M211.84,-95.55C207.47,-88.49 201.02,-78.09 195.44,-69.08"/>
<polygon fill="#63b8ff" stroke="#63b8ff" points="198.49,-67.36 190.25,-60.7 192.54,-71.05 198.49,-67.36"/>
</a>
</g>
<g id="a_edge1&#45;headlabel"><a xlink:href="dir_000003_000016.html" target="_top" xlink:title="1">
<text text-anchor="middle" x="202" y="-63.76" font-family="Helvetica,sans-Serif" font-size="10.00" fill="#63b8ff">1</text>
</a>
</g>
</g>
<!-- dir_a378782d101f4aca9fbcc4d47d62e36f -->
<g id="node10" class="node">
<title>dir_a378782d101f4aca9fbcc4d47d62e36f</title>
<g id="a_node10"><a xlink:href="dir_a378782d101f4aca9fbcc4d47d62e36f.html" target="_top" xlink:title="Network">
<polygon fill="#a3d2ff" stroke="#404040" points="277.38,-59.25 224.62,-59.25 224.62,-40 277.38,-40 277.38,-59.25"/>
<text text-anchor="middle" x="251" y="-45.75" font-family="Helvetica,sans-Serif" font-size="10.00">Network</text>
</a>
</g>
</g>
<!-- dir_5fc1525b4fd8e238e1c2a77dc7136829&#45;&gt;dir_a378782d101f4aca9fbcc4d47d62e36f -->
<g id="edge6" class="edge">
<title>dir_5fc1525b4fd8e238e1c2a77dc7136829&#45;&gt;dir_a378782d101f4aca9fbcc4d47d62e36f</title>
<g id="a_edge6"><a xlink:href="dir_000003_000019.html" target="_top">
<path fill="none" stroke="#63b8ff" d="M222.31,-95.55C226.82,-88.49 233.46,-78.09 239.22,-69.08"/>
<polygon fill="#63b8ff" stroke="#63b8ff" points="242.14,-71.01 244.57,-60.69 236.24,-67.24 242.14,-71.01"/>
</a>
</g>
<g id="a_edge6&#45;headlabel"><a xlink:href="dir_000003_000019.html" target="_top" xlink:title="1">
<text text-anchor="middle" x="243.41" y="-70.41" font-family="Helvetica,sans-Serif" font-size="10.00" fill="#63b8ff">1</text>
</a>
</g>
</g>
<!-- dir_99d0f3ad2022c3d26dd0cd5d7a47d9d5 -->
<g id="node11" class="node">
<title>dir_99d0f3ad2022c3d26dd0cd5d7a47d9d5</title>
<text text-anchor="middle" x="919" y="-101" font-family="Helvetica,sans-Serif" font-size="10.00">src</text>
</g>
<!-- dir_8876ee868f179f49ac283f8f40dce792 -->
<g id="node12" class="node">
<title>dir_8876ee868f179f49ac283f8f40dce792</title>
<text text-anchor="middle" x="533" y="-101" font-family="Helvetica,sans-Serif" font-size="10.00">BSD&#45;GDF</text>
</g>
<!-- dir_ea98f3e3dcb0d56e7fa781ed1176841b -->
<g id="node13" class="node">
<title>dir_ea98f3e3dcb0d56e7fa781ed1176841b</title>
<g id="a_node13"><a xlink:href="dir_ea98f3e3dcb0d56e7fa781ed1176841b.html" target="_top" xlink:title="Assert">
<polygon fill="#a3d2ff" stroke="#404040" points="819.25,-114.5 774.75,-114.5 774.75,-95.25 819.25,-95.25 819.25,-114.5"/>
<text text-anchor="middle" x="797" y="-101" font-family="Helvetica,sans-Serif" font-size="10.00">Assert</text>
</a>
</g>
</g>
<!-- dir_ea98f3e3dcb0d56e7fa781ed1176841b&#45;&gt;dir_7364a00bd693c244d3549160708b16d9 -->
<g id="edge7" class="edge">
<title>dir_ea98f3e3dcb0d56e7fa781ed1176841b&#45;&gt;dir_7364a00bd693c244d3549160708b16d9</title>
<g id="a_edge7"><a xlink:href="dir_000002_000001.html" target="_top">
<path fill="none" stroke="#63b8ff" d="M788.4,-94.88C782.42,-89.28 773.95,-82.54 765,-79.25 681.38,-48.53 457.7,-71.8 351.7,-58.92"/>
<polygon fill="#63b8ff" stroke="#63b8ff" points="352.48,-55.49 342.09,-57.57 351.51,-62.43 352.48,-55.49"/>
</a>
</g>
<g id="a_edge7&#45;headlabel"><a xlink:href="dir_000002_000001.html" target="_top" xlink:title="1">
<text text-anchor="middle" x="354.94" y="-49.09" font-family="Helvetica,sans-Serif" font-size="10.00" fill="#63b8ff">1</text>
</a>
</g>
</g>
<!-- dir_f978498ed7251c59d857c7efb2883bb8 -->
<g id="node14" class="node">
<title>dir_f978498ed7251c59d857c7efb2883bb8</title>
<g id="a_node14"><a xlink:href="dir_f978498ed7251c59d857c7efb2883bb8.html" target="_top" xlink:title="Display">
<polygon fill="#a3d2ff" stroke="#404040" points="886.5,-114.5 837.5,-114.5 837.5,-95.25 886.5,-95.25 886.5,-114.5"/>
<text text-anchor="middle" x="862" y="-101" font-family="Helvetica,sans-Serif" font-size="10.00">Display</text>
</a>
</g>
</g>
<!-- dir_f978498ed7251c59d857c7efb2883bb8&#45;&gt;dir_6535c475324d90b3befd64902c07da2a -->
<g id="edge8" class="edge">
<title>dir_f978498ed7251c59d857c7efb2883bb8&#45;&gt;dir_6535c475324d90b3befd64902c07da2a</title>
<g id="a_edge8"><a xlink:href="dir_000008_000007.html" target="_top">
<path fill="none" stroke="#63b8ff" d="M852.74,-94.93C846.34,-89.35 837.33,-82.61 828,-79.25 753.15,-52.31 511.67,-50.17 419.35,-50.38"/>
<polygon fill="#63b8ff" stroke="#63b8ff" points="419.35,-46.88 409.36,-50.42 419.37,-53.88 419.35,-46.88"/>
</a>
</g>
<g id="a_edge8&#45;headlabel"><a xlink:href="dir_000008_000007.html" target="_top" xlink:title="2">
<text text-anchor="middle" x="421.42" y="-40.16" font-family="Helvetica,sans-Serif" font-size="10.00" fill="#63b8ff">2</text>
</a>
</g>
</g>
<!-- dir_cb0dfc888b52880149f9f7f7baa10f26 -->
<g id="node15" class="node">
<title>dir_cb0dfc888b52880149f9f7f7baa10f26</title>
<g id="a_node15"><a xlink:href="dir_cb0dfc888b52880149f9f7f7baa10f26.html" target="_top" xlink:title="Event">
<polygon fill="#a3d2ff" stroke="#404040" points="622.75,-114.5 581.25,-114.5 581.25,-95.25 622.75,-95.25 622.75,-114.5"/>
<text text-anchor="middle" x="602" y="-101" font-family="Helvetica,sans-Serif" font-size="10.00">Event</text>
</a>
</g>
</g>
<!-- dir_cb0dfc888b52880149f9f7f7baa10f26&#45;&gt;dir_5b2139133b82c782a0ec898d30c00bfc -->
<g id="edge9" class="edge">
<title>dir_cb0dfc888b52880149f9f7f7baa10f26&#45;&gt;dir_5b2139133b82c782a0ec898d30c00bfc</title>
<g id="a_edge9"><a xlink:href="dir_000010_000009.html" target="_top">
<path fill="none" stroke="#63b8ff" d="M594.37,-94.89C589.02,-89.29 581.36,-82.55 573,-79.25 488.94,-46.09 261.13,-72.9 155.17,-59.2"/>
<polygon fill="#63b8ff" stroke="#63b8ff" points="155.99,-55.79 145.58,-57.76 154.95,-62.71 155.99,-55.79"/>
</a>
</g>
<g id="a_edge9&#45;headlabel"><a xlink:href="dir_000010_000009.html" target="_top" xlink:title="3">
<text text-anchor="middle" x="158.47" y="-49.41" font-family="Helvetica,sans-Serif" font-size="10.00" fill="#63b8ff">3</text>
</a>
</g>
</g>
<!-- dir_493ba70368c4a9f048ec33814423cd20 -->
<g id="node16" class="node">
<title>dir_493ba70368c4a9f048ec33814423cd20</title>
<g id="a_node16"><a xlink:href="dir_493ba70368c4a9f048ec33814423cd20.html" target="_top" xlink:title="Logger">
<polygon fill="#a3d2ff" stroke="#404040" points="685.62,-114.5 640.38,-114.5 640.38,-95.25 685.62,-95.25 685.62,-114.5"/>
<text text-anchor="middle" x="663" y="-101" font-family="Helvetica,sans-Serif" font-size="10.00">Logger</text>
</a>
</g>
</g>
<!-- dir_493ba70368c4a9f048ec33814423cd20&#45;&gt;dir_2fa0920537aea18161ab8218923cd9be -->
<g id="edge10" class="edge">
<title>dir_493ba70368c4a9f048ec33814423cd20&#45;&gt;dir_2fa0920537aea18161ab8218923cd9be</title>
<g id="a_edge10"><a xlink:href="dir_000017_000016.html" target="_top">
<path fill="none" stroke="#63b8ff" d="M654.72,-94.88C648.95,-89.28 640.75,-82.54 632,-79.25 548.42,-47.82 323.98,-71.78 218.04,-58.99"/>
<polygon fill="#63b8ff" stroke="#63b8ff" points="218.83,-55.57 208.44,-57.65 217.86,-62.5 218.83,-55.57"/>
</a>
</g>
<g id="a_edge10&#45;headlabel"><a xlink:href="dir_000017_000016.html" target="_top" xlink:title="1">
<text text-anchor="middle" x="221.28" y="-49.17" font-family="Helvetica,sans-Serif" font-size="10.00" fill="#63b8ff">1</text>
</a>
</g>
</g>
<!-- dir_0dea593a4577313187721ad66239ab0b -->
<g id="node17" class="node">
<title>dir_0dea593a4577313187721ad66239ab0b</title>
<g id="a_node17"><a xlink:href="dir_0dea593a4577313187721ad66239ab0b.html" target="_top" xlink:title="Network">
<polygon fill="#a3d2ff" stroke="#404040" points="756.38,-114.5 703.62,-114.5 703.62,-95.25 756.38,-95.25 756.38,-114.5"/>
<text text-anchor="middle" x="730" y="-101" font-family="Helvetica,sans-Serif" font-size="10.00">Network</text>
</a>
</g>
</g>
<!-- dir_0dea593a4577313187721ad66239ab0b&#45;&gt;dir_a378782d101f4aca9fbcc4d47d62e36f -->
<g id="edge11" class="edge">
<title>dir_0dea593a4577313187721ad66239ab0b&#45;&gt;dir_a378782d101f4aca9fbcc4d47d62e36f</title>
<g id="a_edge11"><a xlink:href="dir_000020_000019.html" target="_top">
<path fill="none" stroke="#63b8ff" d="M720.44,-94.88C713.84,-89.28 704.56,-82.53 695,-79.25 612.26,-50.81 393.46,-70.55 288.89,-59.02"/>
<polygon fill="#63b8ff" stroke="#63b8ff" points="289.49,-55.57 279.13,-57.78 288.61,-62.51 289.49,-55.57"/>
</a>
</g>
<g id="a_edge11&#45;headlabel"><a xlink:href="dir_000020_000019.html" target="_top" xlink:title="1">
<text text-anchor="middle" x="291.92" y="-49.14" font-family="Helvetica,sans-Serif" font-size="10.00" fill="#63b8ff">1</text>
</a>
</g>
</g>
</g>
</svg>
