<?xml version="1.0" encoding="UTF-8" standalone="no"?>
<!DOCTYPE svg PUBLIC "-//W3C//DTD SVG 1.1//EN"
 "http://www.w3.org/Graphics/SVG/1.1/DTD/svg11.dtd">
<!-- Generated by graphviz version 10.0.1 (20240210.2158)
 -->
<!-- Title: gdf::DisplayBuffer::Content Pages: 1 -->
<svg width="143pt" height="105pt"
 viewBox="0.00 0.00 143.25 105.00" xmlns="http://www.w3.org/2000/svg" xmlns:xlink="http://www.w3.org/1999/xlink">

<svg id="main" version="1.1" xmlns="http://www.w3.org/2000/svg" xmlns:xlink="http://www.w3.org/1999/xlink" xml:space="preserve" onload="init(evt)">
<style type="text/css"><![CDATA[
.node, .edge {opacity: 0.7;}
.node.selected, .edge.selected {opacity: 1;}
.edge:hover path { stroke: red; }
.edge:hover polygon { stroke: red; fill: red; }
]]></style>
<script type="application/ecmascript" xlink:href="svg.min.js"/>
<svg id="graph" class="graph">
<g id="graph0" class="graph" transform="scale(1 1) rotate(0) translate(4 101)">
<title>gdf::DisplayBuffer::Content</title>
<!-- Node1 -->
<g id="Node000001" class="node">
<title>Node1</title>
<g id="a_Node000001"><a xlink:title="텍스트 컨텐츠를 색상, 시간 정보와 함께 저장하는 구조체">
<polygon fill="#999999" stroke="#666666" points="135.25,-19.25 0,-19.25 0,0 135.25,0 135.25,-19.25"/>
<text text-anchor="middle" x="67.62" y="-5.75" font-family="Helvetica,sans-Serif" font-size="10.00">gdf::DisplayBuffer::Content</text>
</a>
</g>
</g>
<!-- Node2 -->
<g id="Node000002" class="node">
<title>Node2</title>
<g id="a_Node000002"><a xlink:title=" ">
<polygon fill="white" stroke="#666666" points="51.62,-97 11.62,-97 11.62,-77.75 51.62,-77.75 51.62,-97"/>
<text text-anchor="middle" x="31.62" y="-83.5" font-family="Helvetica,sans-Serif" font-size="10.00">string</text>
</a>
</g>
</g>
<!-- Node2&#45;&gt;Node1 -->
<g id="edge1_Node000001_Node000002" class="edge">
<title>Node2&#45;&gt;Node1</title>
<g id="a_edge1_Node000001_Node000002"><a xlink:title=" ">
<path fill="none" stroke="#9a32cd" stroke-dasharray="5,2" d="M28.03,-66.16C27.33,-56.89 27.92,-46.04 32.38,-37.25 36.12,-29.86 42.98,-23.97 49.66,-19.63"/>
<polygon fill="#9a32cd" stroke="#9a32cd" points="24.54,-66.53 29.33,-75.98 31.48,-65.61 24.54,-66.53"/>
</a>
</g>
<text text-anchor="middle" x="57.75" y="-50.25" font-family="Helvetica,sans-Serif" font-size="10.00" fill="grey"> String</text>
<text text-anchor="middle" x="57.75" y="-39" font-family="Helvetica,sans-Serif" font-size="10.00" fill="grey">TimeStamp</text>
</g>
<!-- Node3 -->
<g id="Node000003" class="node">
<title>Node3</title>
<g id="a_Node000003"><a xlink:title=" ">
<polygon fill="white" stroke="#666666" points="126.88,-97 82.38,-97 82.38,-77.75 126.88,-77.75 126.88,-97"/>
<text text-anchor="middle" x="104.62" y="-83.5" font-family="Helvetica,sans-Serif" font-size="10.00">eColor</text>
</a>
</g>
</g>
<!-- Node3&#45;&gt;Node1 -->
<g id="edge2_Node000001_Node000003" class="edge">
<title>Node3&#45;&gt;Node1</title>
<g id="a_edge2_Node000001_Node000003"><a xlink:title=" ">
<path fill="none" stroke="#9a32cd" stroke-dasharray="5,2" d="M96.54,-67.22C92.54,-58.06 87.54,-46.99 82.62,-37.25 79.57,-31.19 75.82,-24.53 72.83,-19.39"/>
<polygon fill="#9a32cd" stroke="#9a32cd" points="93.22,-68.36 100.37,-76.17 99.65,-65.6 93.22,-68.36"/>
</a>
</g>
<text text-anchor="middle" x="105.75" y="-44.62" font-family="Helvetica,sans-Serif" font-size="10.00" fill="grey"> Color</text>
</g>
</g>
</svg>
</svg>

<style type='text/css'>
<![CDATA[
[data-mouse-over-selected='false'] { opacity: 0.7; }
[data-mouse-over-selected='true']  { opacity: 1.0; }
]]>
</style>
<script type="application/ecmascript"><![CDATA[
document.addEventListener('DOMContentLoaded', (event) => {
  highlightEdges();
  highlightAdjacentNodes();
});
]]></script>
</svg>
